<?xml version="1.0" encoding="utf-8"?>
<!-- Generator: Adobe Illustrator 14.0.0, SVG Export Plug-In . SVG Version: 6.00 Build 43363)  -->
<!DOCTYPE svg PUBLIC "-//W3C//DTD SVG 1.1//EN" "http://www.w3.org/Graphics/SVG/1.1/DTD/svg11.dtd">
<svg version="1.1" id="Ebene_1" xmlns="http://www.w3.org/2000/svg" xmlns:xlink="http://www.w3.org/1999/xlink" x="0px" y="0px"
	 width="467.72px" height="147.4px" viewBox="0 0 467.72 147.4" enable-background="new 0 0 467.72 147.4" xml:space="preserve">
<path fill="#004551" d="M63.958,126.562c-0.065,0.202-0.167,0.637-0.36,0.839c0.826,1.347,3.304-0.224,4.171-0.703
	c1.353,0,2.772,0.772,4.301,1.345c0.147-0.068,0.315-0.46,0.421-0.662C69.146,124.738,67.789,125.784,63.958,126.562
	 M49.729,123.051c0.127,0.252,0.254,0.505,0.401,0.773c1.145,0,1.823-0.067,3.07-0.499c0.045,0.045,0.086,0.094,0.127,0.162
	c3.222,0,3.708,0.797,6.82,1.705c2.518,0.524,5.401-1.051,8.001-1.3c3.115,1.187,3.942,1.846,7.773,2.279
	c2.412-0.069,3.896-0.319,6.181-1.594c2.566-1.187,3.347,0.708,6.675,0.137c0.102-0.229,0.209-0.431,0.335-0.64
	c-2.224-0.772-6.732-2.983-8.175-0.318c-2.666,1.322-5.822,1.395-8.553,0.821c-1.632-0.754-2.666-2.099-4.257-2.099
	c-2.453,0.642-6.754,2.691-8.933,0.799C54.218,120.841,54.938,121.25,49.729,123.051 M37.742,118.905
	c5.805-0.909,3.557-2.141,8.745,1.731c3.475,1.733,4.869-0.227,8.578-0.912c2.69,2.301,5.928,2.962,9.526,2.755
	c5.062-3.077,3.349-2.731,7.879,0.731c0.445,0.228,1.12,0.208,1.692,0.613c3.41,0,4.89-0.248,7.834-2.324
	c3.113-1.503,6.417,1.919,10.906,0.073c3.643-1.69,5.271-1.259,9.277-1.346c-0.025-0.318-0.045-0.642-0.045-0.934
	c-6.202-1.094-5.523-2.169-10.291,1.183c-4.256,1.867-6.922-2.142-10.461-0.524c-6.987,5.127-6.987,0.159-13.336-1.116
	c-4.342,2.098-5.336,2.988-9.956,0.999c-0.887-0.613-2.412-1.954-3.132-2.096c-5.147,2.075-6.03,3.739-10.523,0.183
	C42.488,116.536,38.167,115.712,37.742,118.905 M43.25,112.615c-3.197,0.411-6.329,1.274-9.081,2.803
	c0,0.183,0.234,0.409,0.421,0.685c1.779-0.366,6.33-2.163,7.981-1.823c1.529,1.731,2.666,2.757,4.661,4.189
	c4.044,1.44,5.634-2.824,8.467-2.824c6.121,6.586,5.696,3.649,13.027,0.572c0.081-0.026,5.311,3.847,7.874,4.078
	c2.858-0.204,4.595-2.78,7.408-2.78c5.698,2.417,6.544,2.071,11.774-1.298c3.07-0.889,6.631,1.664,10.589,0.319
	c-0.045-0.117-0.086-0.207-0.127-0.297c-3.729-0.434-7.539-1.846-11.097-1.731c-3.642,3.121-5.993,4.943-10.184,2.001
	c0.021-0.04,0.041-0.066,0.066-0.09c-0.025-0.018-0.045-0.044-0.045-0.065c-0.082,0-0.168,0-0.233,0.021
	c-1.589-1.705-1.842-1.023-3.531-0.117c-4.24,4.037-7.265,3.355-10.802-0.906c-4.215-3.146-6.603,6.377-12.535,0.955
	c-2.564-2.87-2.139-2.713-5.528-0.454C47.591,118.497,46.405,116.217,43.25,112.615 M88.053,98.942
	c-0.486-0.594-1.226-1.184-1.374-1.503c2.053,0,5.917,3.108,7.365,4.025c1.027,0.649,1.255,0.803,2.523,1.418
	c2.755,0.751,5.15,3.049,8.251,3.259c-1.339-0.091-4.542,2.365-5.834,2.365c-1.463-0.162-4.998-1.725-5.255-2.68
	C91.68,103.069,88.708,102.544,88.053,98.942 M98.831,109.583c2.225-0.411,4.723-1.891,6.567-3.485
	c-3.774-1.23-7.033-2.822-10.463-4.418c-2.179-1.755-6.496-4.831-9.125-4.831C87.334,101.768,94.453,108.332,98.831,109.583
	 M52.174,72.927c0.15,0.007,0.289,0.026,0.407,0.065C52.463,72.938,52.326,72.916,52.174,72.927 M52.582,72.992
	c0.367,0.168,0.53,0.657,0.239,1.528c-0.167,0.07-0.319,0.138-0.466,0.224c-0.998-0.106-1.186-0.681-1.059-1.478
	c0.305-0.204,0.611-0.319,0.879-0.338c-0.265-0.013-0.574,0.021-0.94,0.133c-0.295,0.979-0.021,1.683,1.034,1.846
	C53.429,74.598,53.563,73.313,52.582,72.992 M44.162,90.193c0.78-0.999,0.76-0.839,0.253-1.664
	c-0.278-0.021-0.531-0.021-0.785-0.021c-0.421,0.981-0.486,0.73,0.107,1.685H44.162z M39.312,92.471
	c0.065,0.779,0.151,0.894,0.76,1.69c0.192-0.114,0.405-0.228,0.613-0.323C40.686,92.357,40.478,92.021,39.312,92.471 M42.911,98.786
	c0,0.522,0.192,0.754,0.552,1.342c0.192-0.11,0.4-0.224,0.613-0.32C44.075,98.671,43.772,98.413,42.911,98.786 M41.938,101.865
	c-0.573-0.254-0.593-0.115-1.018,0.02c-0.042,0.637,0.192,0.911,0.596,1.615C42.488,103.162,42.149,102.819,41.938,101.865
	 M51.508,107.216c0.274-0.027,0.274-0.027,1.374-0.364l-1.056-1.21c-0.339,0-0.47,0.209-0.723,0.319v0.961
	C51.234,107.01,51.356,107.105,51.508,107.216 M57.522,103.71l-0.127,0.477c0.106,0.159,0.233,0.32,0.36,0.496
	c0.36,0,0.715,0.027,1.079,0.049c-0.041-0.704-0.065-0.754-0.318-1.162L57.522,103.71z M52.566,98.213h-1.21
	c0.046,0.981,0.046,0.981,0.107,1.211c0.212,0.087,0.212,0.087,0.785,0.16C53.226,99.584,52.734,98.646,52.566,98.213
	 M56.463,94.637c0,0.775,0.065,0.866,0.72,1.508c0.274,0,0.825-0.574,1.1-0.798C58.283,93.546,57.076,94.431,56.463,94.637
	 M68.365,100.95c-0.552-0.024-1.084-0.045-1.611-0.045c-0.066,0.299-0.066,0.499-0.066,0.96l0.761,0.202
	C68.254,102.067,68.532,101.654,68.365,100.95 M75.773,104.867c-0.319,0.094-0.637,0.209-0.932,0.322
	c-0.066,0.271-0.106,0.545-0.151,0.841c0.217,0.207,0.425,0.434,0.659,0.663C76.792,106.511,76.24,105.575,75.773,104.867
	 M71.689,95.982c-0.131,0.298-0.257,0.615-0.364,0.935c0.319,0.227,0.658,0.478,0.997,0.729c0.274,0,0.827-0.318,1.206-0.456
	c0-0.365-0.613-1.096-0.633-1.143L71.689,95.982z M93.009,74.724c0.36,0.068,0.724,0.164,1.079,0.25
	c0,0.298-0.102,0.548-0.339,0.914h-0.103l-0.953-0.683L93.009,74.724z M94.194,74.859l-1.272-0.34l-0.441,0.752
	c0.38,0.272,0.781,0.547,1.186,0.843h0.127C94.153,75.544,94.194,75.407,94.194,74.859 M94.513,74.702
	c-0.086,0.705-0.168,1.002-0.593,1.617l-1.206-0.084C91.631,74.301,92.861,73.974,94.513,74.702 M92.583,74.179
	c-0.805,1.296-0.883,1.147,0.233,2.379c0.38-0.047,0.785,0.033,1.186,0.013c0.466-0.752,0.679-1.163,0.613-2.051
	C93.667,74.039,93.496,74.087,92.583,74.179 M97.073,94.23c0.106-0.324,0.216-0.615,0.318-0.911
	c-0.805-1.233-0.699-0.551-1.884,0.18c0.192,0.223,0.38,0.479,0.572,0.731H97.073z M101.075,97.076
	c0.466-0.999,0.36-0.796-0.106-1.479h-0.973c-0.172,0.269-0.319,0.565-0.466,0.863c0.188,0.229,0.38,0.479,0.592,0.729
	C100.441,97.144,100.76,97.099,101.075,97.076 M103.553,99.808c0.192-0.748,0.024-0.73-0.315-1.162
	c-0.826,0.047-0.957,0.686-1.231,0.686c0.237,0.253,0.467,0.525,0.7,0.797C102.981,100.018,103.258,99.904,103.553,99.808
	 M83.628,109.219c0,0.501,0.445,0.777,1.04,0.936c0.274-0.043,0.548-0.066,0.825-0.089c0.062-0.318,0.042-0.641,0.042-0.731
	C84.795,108.97,84.179,108.854,83.628,109.219 M67.306,108.583c-0.237,0.271-0.47,0.571-0.703,0.867
	c0.253,0.225,0.511,0.479,0.784,0.728c0.127,0,0.127,0,1.059-0.431c0.086-0.322-0.126-0.797-0.126-0.824L67.306,108.583z
	 M43.355,107.057c0,0.636,0.147,0.911,0.552,1.617c0.192-0.137,0.401-0.25,0.613-0.366
	C44.456,106.852,44.288,106.693,43.355,107.057 M34.145,67.138c-0.875-0.233-0.115-0.75-1.1,0.045
	c0.147,0.18,0.319,0.362,0.487,0.546C33.657,67.729,34.018,67.273,34.145,67.138 M37.513,70.329
	c0.866-0.959,1.713-1.756,1.459-3.007c-0.826,0.431-1.206,2-1.48,2.934C37.492,70.282,37.492,70.305,37.513,70.329 M53.414,77.552
	c0,3.919,0.74,7.97,1.292,12.006c0.192,0.088,0.401,0.204,0.613,0.317c0.045,0,0.082,0,0.127,0.021
	c-0.315-4.211-0.613-8.493-1.607-12.435C53.688,77.481,53.54,77.503,53.414,77.552 M52.566,77.73
	c0.045,3.646-0.106,7.566,0.316,11.369c0.253-0.02,0.531-0.041,0.805-0.041c-0.233-3.786-0.462-7.565-0.679-11.328H52.566z
	 M51.234,77.779c-0.998,1.435-0.998,6.126-0.998,7.906c0.021,0,0.045,0,0.086,0.019c0,1.415-0.805,1.893,0.826,2.69
	c0.045,0,0.106,0,0.172,0.024c0.335-3.371,0.801-6.993,0.506-10.232C51.614,78.05,51.422,77.916,51.234,77.779 M48.838,66.68
	c-2.159-3.232-2.392-3.53-2.473-7.063c-2.711,2.12,1.034,6.947,1.86,9.841c0,0.025,0,0.048,0.02,0.074
	C48.883,69.254,48.838,67.138,48.838,66.68 M48.711,61.169c0.871,0,2.502-1.619,3.537-2.167c-0.127-0.227-0.254-0.431-0.36-0.64
	C50.387,58.182,49.243,59.936,48.711,61.169 M53.585,61.304c-0.36-0.182-0.532-0.068-0.703-0.068
	c-0.148-0.41-0.295-0.799-0.422-1.183c-1.104-0.393-2.158,0.955-2.158,2.07c0.188-0.183,0.38-0.365,0.572-0.523
	c0.168,0.137,0.339,0.297,0.507,0.456c0,0.207-0.319,0.524-0.487,0.754c0.189,0.088,0.401,0.178,0.614,0.293
	C52.396,62.602,52.882,62.148,53.585,61.304 M63.553,24.961c0-2.848-4.277-0.182-1.121,1.069
	C63.07,25.965,63.299,25.462,63.553,24.961 M71.857,24.826c0.314,0.705,0.253,0.865,1.206,1.204
	C75.815,25.306,72.977,21.884,71.857,24.826 M69.146,20.018c-0.761-1.413-1.759-1.458-2.433,0c0.335,0.732,0.233,0.705,1.202,1.071
	C68.598,20.905,68.828,20.723,69.146,20.018 M69.146,29.497c-1.395-2.78-3.836,0.272-1.231,1.206
	C68.726,30.431,68.781,30.364,69.146,29.497 M88.053,67.686c-0.167,0.272-0.335,0.546-0.486,0.838l-1.419-0.067l-0.127,0.278
	l0.446,0.405c0.76-0.044,1.525-0.07,2.31-0.087L88.2,67.686H88.053z M91.737,65.632c-0.147,0.206-0.254,0.323-0.254,0.707
	c0.806-0.025,1.611-0.045,2.437-0.045C93.176,66.067,92.457,65.838,91.737,65.632 M90.257,63.264
	c-0.021,0.205-0.045,0.411-0.045,0.614c0.916-0.066,1.145-0.669,1.697,0.341c-0.209,0.184-0.426,0.364-0.639,0.572
	c0.087,0.158,0.173,0.338,0.259,0.522c0.719,0,1.435,0.026,2.179,0.049v-0.503l-0.512-0.068c-0.359-0.597-0.122-0.776,0.021-1.21
	c0.257-0.02,0.532-0.047,0.809-0.047v-0.499C92.096,62.58,91.929,62.694,90.257,63.264 M90.363,61.553v0.616
	c1.693-0.021,3.386-0.046,5.082-0.046C93.45,60.711,92.375,61.122,90.363,61.553 M104.252,89.012
	c-0.127-0.207-0.233-0.411-0.339-0.617c-0.932,0.135-0.994,0.135-1.354,1.068c0.103,0.162,0.234,0.344,0.36,0.528
	C103.299,89.991,103.999,89.443,104.252,89.012 M103.832,70.395c0.188,0,0.38,0,0.568,0.022c-0.106-1.047-1.946-2.531-2.58-2.531
	C102.454,68.661,103.173,69.415,103.832,70.395 M114.056,66.68c0.339,4.445-5.34,5.469-7.118,8.937c0.809,0,5.066-2.095,5.299-1.846
	c-2.056,1.664-4.768,4.28-7.306,4.624c-0.319-0.344-0.638-0.663-0.953-0.979c-0.679,0.476-2.285,5.807-2.285,6.807l0.694-0.064
	c0.447-1.57,0.912-3.122,1.378-4.671c0.528,0.07,1.079,0.136,1.632,0.229c0.401,2.913-0.086,6.813-0.274,10.026
	c-0.405,0.34-2.33,1.959-2.694,1.774c-0.446-0.795-0.888-1.592-1.312-2.392c0.956-0.865,1.994-1.866,2.902-2.845
	c-1.251-1.349-5.802,4.189-7.073,2.82c1.652-3.827,4.62-12.733,7.265-16.289c-0.405-2.232-3.451-4.694-2.817-5.924
	c1.1,0.59,3.259,2.663,4.424,2.596c0.596-1.251,0.998-2.3,2.183-2.937c0.209,0.114,0.421,0.226,0.654,0.363l0.131,1.141
	c-1.95,1.003-2.543,2.279-3.095,4.644c2.437,1.575,4.129-4.076,4.448-4.076c0.34,0.297,0.401,0.409,1.035,0.252
	c0.278-1.096-0.442-1.325,0.278-2.098l0.679,0.137c0,0.317,0,0.66,0.016,1.002c0.658-0.456,0.936-0.705,1.378-1.458
	C113.696,66.523,113.864,66.59,114.056,66.68 M108.741,70.417v-0.568c-0.254-0.139-0.486-0.276-0.719-0.391v-0.271
	c0.298-0.091,0.548,0.047,0.973,0.296c-0.188,1.664-0.806,1.799-2.057,2.347c-0.082-0.045-0.163-0.088-0.254-0.115
	C108.054,68.504,107.103,71.3,108.741,70.417 M106.223,66.793c-0.041,0-0.087,0-0.127,0.024c-0.466-0.613-0.744-1.138-0.952-1.619
	c0.02-0.02,0.041-0.02,0.061-0.02C105.376,65.38,106.431,66.204,106.223,66.793 M101.075,62.101
	c-0.908,1.319-1.905,7.631-4.404,7.631h-0.06c0-7.199,1.374-9.544-5.696-10.505c-0.192-0.292-0.319-0.589-0.319-0.722
	c2.838-1.827,11.583-0.709,14.715,0.364C103.832,59.916,102.429,60.962,101.075,62.101 M90.637,59.957
	c5.634,0.709,5.569,1.711,5.381,7.682c-0.319,2.778-1.971,4.238-4.363,4.647l-1.292-0.205c-0.02-0.411-0.02-0.799-0.02-1.183
	c0.335-0.164,0.674-0.319,1.014-0.46c0-1.023-0.891-0.759-0.891-1.088c0.891-0.959,2.203,0.818,1.909-1.096h-2.056
	c0-1.104,0.572-0.828,0.444-1.641c-1.058-0.067-2.097-0.117-3.135-0.16C87.628,63.561,89.112,62.195,90.637,59.957 M86.762,66.842
	c-0.336,0.067-0.675,0.161-0.994,0.251c-0.087-0.116-0.172-0.231-0.253-0.321c0.232-0.159,0.461-0.319,0.719-0.458
	C86.401,66.474,86.573,66.66,86.762,66.842 M89.304,72.582c-0.127-0.116-0.258-0.229-0.359-0.342
	c0.101-0.363,0.147-0.32,0.568-0.181c0,0.137,0.02,0.274,0.045,0.407C89.365,72.562,89.451,72.582,89.304,72.582 M85.236,67.639
	c1.231,0,2.351-0.797,3.709-0.07c-0.209,1.29,0.457,2.519,0.081,3.987c-0.552,0-0.928-0.431-1.185-0.638v-0.161
	c0.425-0.362,0.445-0.385,1.104-0.428c-0.087-0.184-0.168-0.366-0.254-0.527c-0.83-0.16-1.758-0.319-2.331,0.022
	c0.974,0.959,2.2,3.216,3.173,4.696c0.32-0.023,0.638-0.023,0.956-0.023l-0.636-0.616l0.89-0.955
	c0.086,0.021,0.233,0.086,0.466,0.34c-0.637,1.55-0.085,1.87-1.565,2.849c-0.086,0.821-0.618,6.082-1.378,5.262
	c-1.504-1.913-2.585-4.192-4.447-1.866l-0.232-0.251c0.592-0.479,1.183-0.959,1.801-1.413c-0.233-0.206-0.467-0.384-0.679-0.565
	l0.572-0.413c-0.761-3.279-0.975-5.902-2.966-8.316c-0.618-0.458-3.217-2.304-3.365-2.623c0.421,0,1.231,0.366,1.865,0.366
	c-1.272-4.874-4.723-9.594-5.508-13.875c2.584,1.961,4.363,8.723,7.367,10.663c-0.02,0.157-0.041,0.317-0.041,0.499
	C83.84,64.311,84.159,66.11,85.236,67.639 M84.298,64.521c-0.076-0.077-0.149-0.155-0.196-0.233
	c0.733-0.264,0.832-0.398,1.784,0.024C85.495,64.733,84.688,64.521,84.298,64.521 M85.062,63.697
	c-0.949-0.139-1.429-0.345-1.872-0.689C85.197,62.498,85.092,63.727,85.062,63.697 M84.116,62.009
	c-1.386,0.405-1.386,0.405-1.683,0.405c-0.091-0.094-0.176-0.188-0.267-0.251c0.502-0.154,1.214-0.635,1.921-0.51
	C84.087,61.755,84.087,61.875,84.116,62.009 M83.408,61.208c-0.413,0.209-0.413,0.209-0.633,0.209
	c-1.055-0.344-1.055-0.344-1.116-0.444C81.941,60.675,83.683,60.215,83.408,61.208 M82.548,59.698c0,0.837-1.169,0.632-0.748,0.573
	c-0.134-0.033-0.635,0.137-0.75,0.097l0.817-0.765C82.149,59.603,82.234,59.667,82.548,59.698 M80.66,59.967l-0.585-0.614
	C81.854,58.321,82.558,59.145,80.66,59.967 M81.574,58.326c-0.363,0.075-0.719,0.178-1.045,0.282
	c-0.357-0.144-0.682-0.251-1.002-0.351c0.063-0.175,0.157-0.354,0.251-0.488C80.529,57.7,80.66,57.669,81.574,58.326 M80.886,57.434
	c-0.298-0.029-0.594-0.029-0.871-0.029c-0.208-0.172-0.401-0.318-0.589-0.466c0.762-0.459,0.569-0.606,1.403,0.059
	C80.83,57.145,80.855,57.293,80.886,57.434 M79.83,55.259c0,0.13-0.186,1.101-0.394,1.006c-0.51-0.195-0.783-0.456-0.963-0.618
	C78.566,55.488,79.377,55.094,79.83,55.259 M78.504,54.967c-0.339-0.18-0.678-0.362-0.993-0.548
	C77.511,51.698,79.953,55.723,78.504,54.967 M78.371,52.973c-0.27,0.193-0.27,0.193-1.187,0.523
	c-0.211-0.133-0.423-0.262-0.641-0.362C77.03,52.973,77.548,52.937,78.371,52.973 M77.779,52.441h-1.701l0.083-0.463
	c0.519-0.034,1.066-0.064,1.618-0.064V52.441z M77.032,50.681c-0.028,0.153-0.047,0.337-0.047,0.518
	c-0.51,0.025-1.016,0.081-1.494,0.128c-0.121-0.156-0.241-0.284-0.363-0.414C75.634,50.372,76.188,50.419,77.032,50.681
	 M76.271,49.586c-0.508,0.197-1.331,0.601-1.589,0.601c-0.106-0.204-0.186-0.404-0.257-0.565
	C75.134,49.382,75.464,49.142,76.271,49.586 M75.646,48.341c-1.144,0.638-1.144,0.638-1.251,0.638
	c-0.486-0.413-0.4-0.413-0.126-0.779c0.445,0,0.892,0.027,1.337,0.049C75.606,48.27,75.627,48.294,75.646,48.341 M74.588,47.198
	c-0.319,0.229-0.511,0.436-0.847,0.436c-0.339,0-0.445-0.436-0.466-0.503c0.487-0.25,0.594-0.478,1.272-0.296
	C74.547,46.949,74.567,47.063,74.588,47.198 M73.726,46.044c-0.239,0.223-0.564,0.477-0.799,0.477
	c-0.211-0.129-0.411-0.254-0.588-0.351c0.12-0.223,0.234-0.443,0.377-0.637C72.926,45.533,73.28,45.753,73.726,46.044
	 M73.272,45.096l-0.1,0.207c-0.583,0-1.166,0-1.719,0.031l-0.231-0.238C71.975,44.711,72.101,44.642,73.272,45.096 M72.424,43.838
	c-0.027,0.091-0.054,0.185-0.054,0.302c-0.33,0.029-0.629,0.059-0.938,0.12l-0.994-0.712C70.438,42.899,72.275,43.748,72.424,43.838
	 M71.649,43.002c-0.067,0-0.1,0.037-0.141,0.078c-0.383-0.158-0.725-0.299-1.076-0.414c0.069-0.111,0.135-0.225,0.209-0.299
	c0.309,0.111,0.658,0.225,1.008,0.377V43.002z M70.883,42.197c-0.714-0.267-1.162-0.6-1.05-1.012c0.301-0.088,0.523,0.034,1.01,0.27
	C70.568,41.836,70.962,42.197,70.883,42.197 M70.16,40.73c-0.189-0.047-0.36-0.069-0.527-0.092c0.065-0.159,0.126-0.296,0.212-0.431
	C70.059,40.297,70.332,40.82,70.16,40.73 M70.16,38.314c0,0.456-0.021,0.571-0.34,1.069c-1.414,0-2.813,0-4.211,0.027
	c-0.147-0.593-0.086-0.64,0.086-1.028C66.729,38.29,69.188,37.789,70.16,38.314 M68.254,33.371
	c-0.273-0.116-0.527-0.207-0.785-0.298C67.232,31.517,69.417,32.75,68.254,33.371 M68.766,36.924l-1.271,0.341
	c-0.086-0.134-0.147-0.251-0.213-0.364C67.449,36.81,69.041,36.037,68.766,36.924 M68.618,34.373
	c0.082,0.135,0.163,0.296,0.25,0.453c-0.168,0.185-0.401,0.434-0.569,0.434C66.583,35.123,67.241,34.279,68.618,34.373
	 M69.188,31.229c-0.442,0.182-0.888,0.366-1.313,0.548c-2.31-0.413-2.564-2.989-0.613-3.852c0-0.773,0-1.551,0.02-2.326
	c-1.059,0-2.118,0-3.177,0.024c-1.186,2.962-6.414-1.825-1.353-2.891c0.953,0.405,1.018,0.201,1.46,1.362
	c1.018,0,2.032,0,3.07,0.023c-0.02-0.906-0.04-1.82-0.04-2.732c-4.49-1.798,4.427-6.564,2.137-0.23l-0.572,0.275
	c-0.025,0.89-0.025,1.781-0.025,2.687c0.852-0.023,1.722-0.023,2.589-0.023c0.507-1.641,1.766-1.427,3.071-0.865
	c1.186,3.214-1.865,4.465-2.965,2.394c-0.911-0.024-1.803-0.024-2.695-0.024c0,0.795,0,1.621,0.025,2.438
	C70.12,28.585,69.567,30.135,69.188,31.229 M66.627,34.305c0,0.34-0.065,2.163-0.384,1.822c-0.487-0.207-0.973-0.387-1.46-0.57
	c-0.02-0.162-0.041-0.32-0.041-0.454c0.507-0.366,1.014-0.73,1.521-1.076C66.37,34.123,66.497,34.211,66.627,34.305 M65.164,33.759
	c-0.466,0.338-2.052,1.252-2.158,1.202c-0.765-0.429-1.525-0.864-2.261-1.271c0.376-0.411,3.573-0.141,4.419-0.141V33.759z
	 M60.4,34.487c0.466,0.317,0.933,0.636,1.419,0.979v0.503c-0.486,0.364-0.953,0.728-1.419,1.116l-0.319-0.206
	C60.062,36.127,59.829,34.894,60.4,34.487 M59.615,33.731c-0.081,0.163-0.168,0.325-0.253,0.509l-1.505,0.065
	c-0.037,0.068-0.061,0.135-0.082,0.203c-0.993-0.342-1.717,0.527-2.645,0.527c-1.377-0.074-1.377-0.074-1.591-0.141
	C53.981,33.759,58.389,32.913,59.615,33.731 M53.52,36.535c0.528-0.748,4.191-1.228,5.315-1.341l0.613,0.661
	c-1.904,0.887-3.875,0.842-5.715,0.955C53.646,36.717,53.585,36.625,53.52,36.535 M54.071,38.361
	c0.654-0.411,4.572-1.23,5.058-0.431c-1.693,0.36-3.279,0.681-4.845,0.817C54.198,38.611,54.133,38.474,54.071,38.361
	 M61.459,37.858c0.802-1.071,2.838-1.821,3.811-0.253C61.88,37.88,61.88,37.88,61.459,37.858 M64.382,40.567
	c0.066,0.184,0.189,0.433,0.254,0.826c-0.065,0.02-0.11,0.041-0.151,0.086C64.104,41.074,64.276,40.82,64.382,40.567 M64.509,44.899
	c-0.212,0.139-0.212,0.139-0.233,0.09c-0.507-0.636-0.405-0.548-0.172-1.137C64.231,43.852,64.571,44.49,64.509,44.899
	 M63.746,42.844c-0.192-0.292-0.36-0.589-0.528-0.885C63.725,40.567,64.211,42.597,63.746,42.844 M63.156,45.88
	c0.295-0.642,0.335-0.526,0.948,0.043c0,0.116,0,0.116-0.188,0.433h-0.102C63.578,46.199,63.364,46.039,63.156,45.88 M62.857,44.375
	c-0.531-0.48-0.596-0.593-0.719-1.069c0.041-0.069,0.102-0.139,0.168-0.204c0.212,0.02,0.425,0.065,0.658,0.108
	C62.964,43.439,62.984,44.441,62.857,44.375 M61.713,44.4c0.192,0.204,0.38,0.407,0.572,0.638c-0.045,0.269-0.066,0.546-0.086,0.842
	c-0.106,0-0.208,0-0.294,0.022c-0.617,0-0.425-1.003-0.446-1.277C61.542,44.535,61.627,44.465,61.713,44.4 M61.756,50.984
	c0.264,0.126,0.523,0.286,0.787,0.444c0,0.121,0,0.25,0.028,0.371c-0.057-0.031-0.118-0.031-0.174-0.031
	c-0.731-0.408-0.731-0.408-0.843-0.562C61.61,51.11,61.667,51.045,61.756,50.984 M61.419,52.127c0.285,0.357,0.929,0.94,0.929,1.691
	c-0.1,0-0.18,0.03-0.26,0.055c-0.539-0.137-0.878-0.584-1.158-0.863c0.125-0.305,0.255-0.611,0.385-0.883H61.419z M60.887,53.9
	c0.172,0.022,0.335,0.047,0.531,0.088c0.106,0.23,0,1.232-0.257,0.958c-0.254-0.364-0.442-0.613-0.487-0.775
	C60.745,54.084,60.805,53.988,60.887,53.9 M61.129,57.002c-0.373-0.311-0.745-0.586-1.124-0.87
	C61.475,54.215,61.969,56.727,61.129,57.002 M59.836,57.444c0.087-0.213,0.173-0.424,0.287-0.605c0.249,0,1.227,0.727,0.697,1.294
	C60.485,57.896,60.146,57.652,59.836,57.444 M59.272,58.267c0.225-0.04,0.475-0.074,0.731-0.074
	c0.122,0.134,1.262,1.122,0.377,1.597C59.399,59.181,59.559,58.94,59.272,58.267 M59.771,61.215l-0.956-1.193
	C59.663,58.485,59.985,61.445,59.771,61.215 M58.794,61.353l1.118,0.803c0,0.03-0.024,0.43-0.1,0.349
	c-0.447-0.185-0.869-0.375-1.292-0.564c-0.024-0.106-0.024-0.214-0.024-0.32C58.597,61.518,58.693,61.432,58.794,61.353
	 M58.614,62.682c0.35,0.134,0.506,0.134,0.682,0.892c-0.278,0.41-0.278,0.41-0.332,0.388c-0.224-0.193-0.448-0.356-0.677-0.524
	C58.288,62.816,58.312,63.009,58.614,62.682 M57.882,64.403c0.441,0.159,0.695,0.341,1.1,1.006c-0.066,0.086-0.168,0.2-0.254,0.2
	C58.303,65.198,57.734,64.791,57.882,64.403 M57.734,65.813c0.168,0.115,1.121,0.64,0.72,1.28
	C57.857,66.635,57.458,66.431,57.734,65.813 M57.285,67.41c0.298,0.067,0.49,0.067,0.785,0.615c-0.082,0.113-0.168,0.252-0.25,0.387
	h-0.277c-0.148-0.158-0.295-0.295-0.422-0.429C57.163,67.774,57.224,67.59,57.285,67.41 M57.035,70.213
	c-0.212-0.297-0.425-0.595-0.637-0.863C56.979,67.884,57.588,70.405,57.035,70.213 M56.418,66.887
	c-0.72,0.728-1.84,1.754-2.939,1.457c-0.892-0.615-0.892-0.615-0.978-0.615c0.634,1.118,1.844,2.776-0.36,3.142
	c-1.713-0.499-1.038-2.96-1.651-4.078c-5.696-8.5,0.531-12.507,6.227-5.99c-0.446,0.981-2.499,1.278-2.752,1.709
	c0.487,0.319,0.973,0.656,1.46,1.001c0,0.199-1.264,1.836-1.46,2.078c1.251,0.597,0.564-1.086,2.011-0.618
	C55.135,66.627,56.418,65.922,56.418,66.887 M51.381,55.948c-4.808,3.42-4.808,3.279-3.451,8.956
	c1.693,1.913,2.073,1.848,1.46,4.714c-0.658,0.206-1.251,0.503-1.779,0.619c-0.359-0.274-0.699-0.547-1.038-0.822
	c-0.168-1.755-0.887-2.984-1.521-4.399c-0.086-0.02-0.151-0.043-0.217-0.043c-0.077-1.641-0.208-3.056-0.421-4.444
	c1.566-1.504,5.867-4.121,5.483-6.378C50.535,53.466,51.716,54.832,51.381,55.948 M49.706,72.764l-0.254,1.711
	c-0.928-0.478-1.84-0.954-2.752-1.415c-0.02,0.023,0.34,0.904,0.36,1.027c0.871,1.482,4.767,3.146,6.587,2.436
	c0.446,0.319,0.806,0.939,1.272,1.598c0.126-0.117,0.273-0.204,0.421-0.299c0.867,1.188,0.086,9.163,1.696,12.624
	c0.36,0,0.822-0.205,1.248-0.343c-0.912-4.217-1.419-3.892,1.59-5.765c0.887,0.8-0.233,4.33-0.511,5.765
	c0.127,0.046,0.192,0.046,0.253,0.319c0.107,0,0.237,0,0.36,0.023c0.147-0.272,0.319-0.549,0.49-0.8
	c0.148,0.028,0.148,0.028,0.953,0.48l0.062,1.095c0.977-0.641,1.251-7.151,1.124-8.09c-0.405-0.18-0.805-0.36-1.186-0.524
	c0.021-0.27,0.062-0.524,0.106-0.775c0.401,0,0.655,0.437,1.014,0.982c0.127-0.043,0.275-0.093,0.426-0.116
	c0.867-2.502,0.4-5.925,0.826-8.404c0.781-0.846,1.1-1.394,1.52-2.373c0.025,0,0.045,0.024,0.087,0.049
	c-0.573,6.468-0.761,13.169-1.06,19.773h1.039l0.319-2.117c1.439,0,2.923,0.021,4.51,0.271l0.065,2.574
	c-0.11-0.018-0.212-0.018-0.319-0.018c-6.967-0.347-15.246-0.777-21.113-4.835c0-3.529,2.265-6.74,1.549-10.683
	c-0.237-0.02-0.466-0.02-0.682-0.02c-0.336,1.954-1.01,8.77-1.775,10.156c-0.294-0.068-0.572-0.136-0.846-0.202
	c-0.258-2.942,0.147-5.927-0.344-8.57c-1.86-3.874-3.745-7.836-5.351-11.573c-0.319-2.437-0.299-4.787-0.233-7.067
	c0.613-0.317,0.654-0.566,1.48-0.384c0.253,0.499,0.547,0.977,0.826,1.756C44.354,67.273,44.667,68.618,49.706,72.764
	 M43.041,56.042c-0.49-0.113-0.956-0.227-1.422-0.323c-0.507-1.069-1.121-2.435-1.121-3.396c0.041-0.038,2.225-2.068,2.225-1.183
	c-0.933,0.914-1.358,2.373-0.385,3.784c0.192-0.137,0.385-0.274,0.597-0.389c-0.065-1.435,0.209-2.324,0.507-3.53
	c0-1.642-1.439-2.711-1.95-3.989c0.106-0.085,0.213-0.157,0.319-0.23c0.908,0.325,2.616,2.829,2.817,2.829
	c0.085-0.115,0.167-0.227,0.274-0.321c-0.699-2.48-1.12-4.602-1.399-6.879l0.254-0.342h0.106
	C45.768,45.763,45.751,52.507,43.041,56.042 M43.629,46.538c-1.079-0.272-1.713-4.307-1.881-5.174
	c0.082-0.108,0.168-0.223,0.254-0.317C43.017,41.871,43.907,45.285,43.629,46.538 M41.156,48.294
	c-0.552,1.139-1.018,1.936-2.184,2.482C38.972,49.774,40.011,48.02,41.156,48.294 M39.991,51.326
	c0.465-0.503,1.606-2.032,2.158-2.214c0.106,0.096,0.213,0.182,0.319,0.296c-0.257,0.254-2.012,2.145-2.224,2.145
	C40.158,51.461,40.072,51.391,39.991,51.326 M41.131,71.805c0,0.344-0.74,2.234-1.14,1.803c-1.039-1.116-0.639-4.125,0.339-5.174
	C40.857,69.119,42.676,71.08,41.131,71.805 M40.351,76.043h-0.151c-0.127-0.067-0.254-0.133-0.36-0.2
	c0.041-0.571,0.257-0.887,0.531-1.3h0.34C40.71,75.041,40.73,75.475,40.351,76.043 M40.138,65.362
	c-0.274,2.344-1.292,4.053-2.396,6.265l0.486,0.068c0.192,0.819,2.523,9.363,1.95,10.595c-1.267-0.546-1.966-1.3-3.066-1.393
	c0,2.847,4.657,3.26,5.61,5.313c-0.655,0.887-1.526,2.525-2.523,2.869c-7.049-3.783-6.374-4.465-5.311-11.8
	c0.695-0.575,1.034-0.549,2.032-0.71c0.274,0.546,0.552,1.092,0.846,1.664c0.02,0,0.045,0,0.086,0.021
	c0.634-0.681-0.405-1.981-0.617-2.504c-3.112-0.344-4.698-1.938-7.049-3.717c-0.02-0.135-0.045-0.249-0.045-0.364l-1.905-0.339
	c0-0.184,0-0.346,0.024-0.501c1.141,0.317,2.307,0.634,3.471,0.955c0,0.114,0.021,0.229,0.041,0.364
	c0.405,0.091,2.077,0.776,2.65,0.64c-2.502-3.239-8.705-3.852-6.546-8.525c0.805-0.364,0.699,0.959,1.104,1.619
	c0.355-0.388,0.736-0.771,1.12-1.139c0.213,0.115,0.425,0.252,0.634,0.385c0.02,0.345,0.045,0.684,0.086,1.026
	c-0.127,0.072-0.253,0.139-0.38,0.233v0.454c1.525,0,1.504-1.368,2.118,1.026c0.633,1.185,1.844,1.864,3.111,2.686
	c0.572-0.204-0.295-3.941-0.401-4.327c-0.638-0.319-1.272-0.618-1.885-0.914c0-0.297,0.405-0.569,0.573-0.773
	c1.332,0.409,2.179,1.956,3.385,3.189c1.206-0.339,1.738-1.458,2.523-2.463C39.945,65.292,40.031,65.313,40.138,65.362
	 M36.896,65.632c-1.537-0.706,0.556-2.179,1.018-1.934C37.726,64.311,37.406,65.088,36.896,65.632 M34.312,66.909
	c-0.021,1.914-0.021,1.914-0.062,1.891c-0.826-0.501-1.713-1.21-1.713-2.14C33.404,66.204,33.085,66.247,34.312,66.909
	 M33.957,92.174c1.627,1.464,6.689,3.854,7.494,5.585c-0.634,0.798-0.675,0.912-1.48,1.027
	C38.192,97.944,32.136,94.431,33.957,92.174 M34.671,97.19c0.086-0.092,0.172-0.161,0.253-0.229
	c1.444,1.345,2.503,2.098,4.388,3.075c-0.213,0.776-0.426,1.551-0.634,2.348c-0.045,0-0.066,0-0.086,0.021
	C35.73,100.883,34.782,100.382,34.671,97.19 M35.73,101.997c0.511,0,5.189,2.619,5.912,3.395c-0.192,0.502-1.272,2.576-1.337,2.553
	C38.359,106.44,34.336,104.8,35.73,101.997 M36.688,107.057c1.124,0,2.817,1.526,3.917,2.277c-0.446,0.595-1.885,1.321-2.478,1.529
	C36.622,109.856,36.793,108.721,36.688,107.057 M41.663,109.037c0.275-1.229,0.549-2.027,1.039-3.007
	c2.686,0.93,5.716,1.799,8.341,3.532c0.041,0.686,0.106,2.19-0.425,2.755C48.099,111.295,43.883,109.037,41.663,109.037
	 M51.463,111.753c0.233-0.665,0.49-1.324,0.744-1.961c4.489,0.386,8.7,1.936,13.341,2.438c0.016-1.481,0.147-2.99,0.359-4.329
	c3.006,0.088,14.139-0.979,15.03,0.934c0.192,0.818,0.405,1.73,0.425,2.73c-1.819,1.849-3.05,3.763-5.486,4.193
	c-0.618-0.402-3.562-2.529-2.666-3.302l2.666,0.338c0.298,0.958-0.082,1.875,0.388,2.739c0.63-0.572,0.654-1.823,0.781-2.623
	c0.887-0.134,1.627-0.202,2.751-0.116c-0.045-0.317-0.085-0.636-0.106-0.954c-4.722-0.571-9.673-2.007-13.827,0.39
	c-6.796,5.873-4.956-0.638-10.966-1.481C53.753,111.13,52.501,111.753,51.463,111.753 M82.189,110.998
	c0.024-0.91,0.06-1.826,0.106-2.733c1.966-1.208,4.172-0.979,6.543-1.092c0.148-0.298,0.315-0.597,0.487-0.869
	c0.167,0,2.858,2.733,3.368,3.235c-3.601,1.229-5.805,1.981-9.299,2.121C82.993,111.431,82.589,111.202,82.189,110.998
	 M85.936,112.662c1.337-0.909,2.731-0.548,4.428-0.909c1.525-0.594,2.965-1.734,4.551-0.706c-2.433,1.797-4.023,3.798-7.028,3.798
	C86.635,114.373,86.426,113.664,85.936,112.662 M105.247,101.155l-0.061,2.374c-0.087-0.029-0.152-0.029-0.214-0.029
	c-1.247-0.068-2.011-0.269-3.025-0.614C101.778,102.35,104.742,101.047,105.247,101.155 M102.22,101.287
	c-2.371-2.998,0.127-3.46,2.67-5.124c0.188,0,0.376,0.413,0.568,0.754C105.839,100.104,104.591,100.086,102.22,101.287
	 M105.058,91.379c0.209,0.912,0.573,1.824,0.38,3.034c-1.206,0.816-5.102,4.232-6.013,4.417c-0.594-1.091-0.994-2.05-1.419-3.005
	C98.982,95.21,104.591,91.041,105.058,91.379 M101.693,92.203c-1.844,1.362-4.024,3.255-6.227,3.622
	c-0.38-1.096-0.826-2.326-1.084-3.238C96.141,91.448,101.693,86.414,101.693,92.203 M99.824,79.097
	c-0.38,3.692-3.512,11.076-7.641,11.691c-0.846-0.114-1.673-0.227-2.499-0.319c0-3.669,3.811-2.938,5.868-5.967
	c0.78-2.326,1.373-4.626,2.392-6.701C98.831,77.801,99.064,78.281,99.824,79.097 M96.08,76.139c1.627,0,0.294,2.371-0.045,3.165
	h-0.253c-0.082-0.022-0.168-0.045-0.254-0.045C95.38,77.64,95.466,77.415,96.08,76.139 M94.194,77.891
	c1.566,0.844,1.288,4.238,0.339,5.854h-0.081c-0.532-1.454-0.426-4.145-0.511-5.577L94.194,77.891z M91.565,76.021
	c0-1.824,0.871-2.847,2.629-2.756c0.765,0.981,0.908,1.755,1.059,3.326c-0.274,0.141-0.548,0.276-0.801,0.411
	C92.922,76.842,92.543,76.8,91.565,76.021 M92.964,78.187c0.527,2.253,0.347,5.201,0.445,7.518c-0.548,0.229-1.075,0.458-1.61,0.71
	l-0.27-0.231C91.716,83.999,91.61,79.876,92.964,78.187 M91.042,77.094c0.441,0.296,0.908,0.593,1.374,0.909
	c0,0-1.399,9.594-2.792,8.842c-0.913-0.979,3.552-8.159,1.839-9.248c-1.272,1.138-2.138,6.879-3.222,9.115
	c-0.335,0-0.249-0.094-0.314-0.162C88.438,84.136,89.092,78.484,91.042,77.094 M84.094,79.984c2.266-1.114,2.434,0.55,4.257,2.76
	c0,0.731-1.504,4.488-1.672,4.396c-0.784-0.569-0.404-0.958-0.192-1.504C85.663,84.04,84.094,81.673,84.094,79.984 M86.275,90.24
	h-0.127c-0.082-0.067-0.172-0.114-0.253-0.159c0-0.799,0.445-1.525,0.678-2.212c0.082,0.074,0.168,0.141,0.274,0.209
	C86.806,88.875,86.635,89.511,86.275,90.24 M87.439,89.694c-0.044,0-0.064,0-0.081,0.021c-0.572-0.84,0.168-1.456,0.548-2.028
	c0.127,0.074,0.274,0.14,0.425,0.228C88.332,88.051,87.587,89.354,87.439,89.694 M88.986,88.051h0.06
	c0.131,0.595-0.188,0.867-0.588,1.439l-0.192-0.344C88.496,88.781,88.732,88.419,88.986,88.051 M85.81,92.403
	c-0.254-0.229-0.736-0.354-0.719-0.68c0.073-1.453,3.384-0.35,5.013-0.139C88.37,91.9,86.001,92.403,85.81,92.403 M92.081,97.509
	c-2.101-1.229-3.18-2.162-4.722-3.787c1.795-0.815,3.512-0.589,5.503-0.519c0.274,0.454,1.693,2.73,1.46,3.486
	C93.688,96.874,92.502,97.509,92.081,97.509 M100.821,102.087h-0.167c-1.145-0.386-1.824-0.818-2.564-1.413
	C98.09,99.151,102.899,99.221,100.821,102.087 M97.625,100.517c-0.065-0.022-0.102-0.022-0.146-0.022
	c-1.799-0.617-2.67-1.253-3.983-2.322c4.129-2.528,3.708-3.305,4.702,1.022C97.588,99.628,97.625,99.748,97.625,100.517
	 M85.388,89.762h-0.193c-2.606-0.522-2.921-1.664-4.36-3.739l-2.265-0.066c-0.025-0.041-0.041-0.07-0.066-0.09
	c3.516-1.615,1.358,0.413,4.15,0.23c-0.38-0.507-0.76-0.981-1.12-1.462c-1.1,0.092-2.204,0.185-3.283,0.296
	c-0.106-0.111-0.212-0.204-0.319-0.296c1.611-0.499,2.183-0.777,4.17-0.777l0.7,0.893c0.232-0.023,0.486-0.023,0.739-0.023
	c-1.668-1.596-1.774-1.569-3.704-1.822v-0.228c0.597-0.48,2.352-0.252,3.324-0.252C84.538,85.205,85.833,86.299,85.388,89.762
	 M84.391,77.552c-0.868,0.683-1.544,0.979-2.263,1.363c0.482,0.82,0.972,1.662,1.48,2.511c-0.085,0.112-0.168,0.222-0.233,0.364
	c-1.693-0.046-2.437,0.292-3.704,0.478c0,0.611-1.207,1.389-1.738,1.55c0-3.057-0.847-5.746-1.292-8.5
	c1.631-1.756,4.276,1.618,5.528,2.895C82.953,77.871,83.46,77.711,84.391,77.552 M79.69,72.218c0.021,0,0.041,0,0.086,0.022
	c0,0.733-0.381,1.917-1.058,2.371c-0.107-0.091-0.214-0.185-0.3-0.272L79.69,72.218z M77.872,72.605
	c0.147,0,0.254,0.071,0.527,0.227c-0.466,0.506-0.719,1.048-1.059,1.664c-0.061,0-0.127,0-0.192,0.023h-0.127
	C77.233,73.77,77.511,73.175,77.872,72.605 M84.053,76.48c-0.315,0.14-0.638,0.271-0.932,0.436c-1.971-0.481-2.352-0.643-3.39-2.441
	c0.254-0.595,0.511-1.184,0.785-1.76c0.127-0.021,0.274-0.021,0.421-0.021c-0.041,1.732-0.568,2.098,1.19,2.85
	c0.041-0.55-0.294-0.801-0.446-0.954c0.107-0.73,0.593-1.252,0.928-1.779c-0.866-0.662-1.12-1.141-1.966-1.617
	c-0.892,0.043-2.727,0.775-3.279,0.476c-0.025-0.137-0.025-0.274-0.025-0.388c1.354-1.094,2.351-0.953,4.089-1.069
	c-0.867-2.12-2.776-2.527-4.49-3.42c-0.02-0.113-0.02-0.113,0.082-0.362C82.189,67.819,83.542,70.734,84.053,76.48 M80.296,65.236
	c-0.044,0.144-0.044,0.144-0.582,0.387c-0.321-0.187-0.635-0.387-0.903-0.535c0.173-0.139,0.355-0.282,0.538-0.382
	C79.663,64.849,79.975,65.054,80.296,65.236 M79.559,63.852l0.089,0.305H77.91c0-0.105,0.036-0.207,0.065-0.267
	C78.502,63.852,79.029,63.852,79.559,63.852 M78.986,63.003c-0.259,0.068-0.509,0.138-0.761,0.239
	c-0.417-0.272-0.957-0.508-0.828-0.821C78.316,62.421,78.396,62.246,78.986,63.003 M78.779,61.531c0,0.084,0,0.17,0.03,0.254
	c-0.152,0.165-0.314,0.393-0.547,0.393c-0.635-0.084-0.923-0.109-1.081-0.477C77.685,61.531,78.049,61.189,78.779,61.531
	 M78.208,60.572c-0.097,0.104-0.196,0.24-0.256,0.378h-0.219c-0.505-0.204-0.974-0.378-1.448-0.542
	C76.662,60.001,77.514,60.24,78.208,60.572 M77.486,59.482l-0.253,0.207c-0.614-0.072-0.781-0.231-1.034-0.503
	c0.143-0.184,0.38-0.615,0.613-0.615C76.959,58.728,77.339,59.002,77.486,59.482 M76.816,58.074c-0.06,0.067-0.127,0.17-0.188,0.271
	h-0.28c-0.256-0.171-0.507-0.344-0.73-0.512C75.867,57.425,76.47,57.288,76.816,58.074 M76.537,56.745
	c-0.224,0.241-0.938,0.241-1.095,0.241l-0.837-0.407c0.024-0.168,0.059-0.301,0.09-0.439C75.284,56.345,75.904,56.546,76.537,56.745
	 M76.005,55.756l-1.662-0.031l-0.224-0.236C74.962,54.986,75.1,54.928,76.005,55.756 M75.399,54.12v0.247
	c-0.327,0.361-0.764,0.254-1.163,0.21l-0.399-0.859C74.301,53.544,74.865,53.795,75.399,54.12 M74.98,52.485
	c-0.027,0.207-0.059,0.447-0.059,0.684c-0.132,0-0.271,0-0.41,0.03c-0.799-0.12-0.999,0.068-1.382-0.281
	c0.159-0.33,0.358-0.626,0.549-0.925C74.088,52.319,74.539,52.154,74.98,52.485 M74.408,51.532c0.079,0.11-0.392,0.104-0.557,0.104
	c-0.624-0.089-1.227-0.687-1.441-0.399C73.001,50.442,73.876,50.786,74.408,51.532 M73.825,49.919
	c-0.029,0.063-0.029,0.155-0.029,0.253l-0.89,0.287c-1.31-0.221-1.195-0.514-0.419-1.12C72.878,49.534,73.084,49.755,73.825,49.919
	 M73.32,48.566c-0.237,0.207-0.47,0.478-0.683,0.478c-0.568-0.134-0.654-0.339-0.846-0.615
	C72.425,48.249,72.704,47.908,73.32,48.566 M73.12,47.612c-0.271,0.209-0.271,0.209-0.65,0.314c-1.058-0.28-2.279-0.403-0.924-0.884
	C72.188,47.287,72.586,47.409,73.12,47.612 M72.093,46.166c-0.154,0.136-0.272,0.301-0.402,0.467c-0.397-0.266-0.762-0.5-1.13-0.725
	C70.963,45.707,71.909,45.586,72.093,46.166 M70.13,44.305c0.313,0.16,0.661,0.317,1.008,0.474
	c-0.028,0.154-0.028,0.314-0.028,0.499c-0.111,0-0.23,0-0.319,0.028C70.46,45.236,69.72,44.742,70.13,44.305 M69.612,44.58
	c0.233,0.251,0.785,1.05,0.208,1.343C69.633,45.307,69.317,44.899,69.612,44.58 M67.154,40.683c0.512-0.184,0.72-0.319,1.444-0.274
	c0.887,4.081,1.562,14.378,0.523,19.597c-0.462,0-0.908,0-1.353,0.02c-0.319-0.137-0.634-0.27-0.953-0.386
	C65.781,54.055,66.836,46.289,67.154,40.683 M65.229,43.825h0.593c0.278,0.344,0.866,0.683,0.4,1.19
	C65.462,44.604,65.482,44.375,65.229,43.825 M64.997,45.338c0.092-0.072,0.18-0.142,0.297-0.214c0.29,0.289,0.495,0.558,1.064,0.851
	c-0.07,0.123-0.136,0.243-0.184,0.363h-0.157C65.429,45.905,65.247,45.708,64.997,45.338 M64.783,43.19h-0.127
	c-0.04-0.023-0.085-0.047-0.106-0.047c0.066-0.182,0.131-0.364,0.213-0.546C65.062,42.621,65.017,42.844,64.783,43.19 M65.95,48.023
	c-0.091,0-0.184,0-0.276,0.024c-0.363-0.341-0.722-0.682-1.063-1.022C64.611,46.439,65.845,47.12,65.95,48.023 M64.318,48.756
	c0.363-0.389,0.472-0.146,1.133,0.169l0.132,1.048c-0.044,0-0.066,0.026-0.088,0.052C64.387,48.901,64.387,48.901,64.318,48.756
	 M64.249,49.999c0.157,0,0.748,0.558,1.063,0.827c0,0.223,0,0.44,0.027,0.688c-0.071-0.029-0.141-0.029-0.185-0.029
	C64.748,51.485,64.271,50.074,64.249,49.999 M65.797,88.736c-0.4-0.362-0.376-0.387-0.335-0.658
	c0.993-0.297,4.743-1.187,5.017,0.366C68.934,88.485,67.114,88.736,65.797,88.736 M71.92,53.989c-0.04,0.27-0.589,0.503-0.679,0.503
	c-0.293-0.18-0.589-0.367-0.85-0.503c0.131-0.224,0.261-0.408,0.425-0.593C71.159,53.581,71.544,53.765,71.92,53.989 M70.377,52.305
	c0.126-0.067,0.253-0.137,0.396-0.182c0.257,0.227,0.531,0.454,0.805,0.703c-0.102,0.092-0.208,0.207-0.315,0.323
	C70.712,53.08,70.226,52.826,70.377,52.305 M71.679,51.009c-0.15,0.173-0.78,0.261-1.028,0.261
	c-0.096-0.139-0.605-0.239-0.672-0.342c0.187-0.13,1.058-0.404,1.404-0.404L71.679,51.009z M71.473,49.31
	c-0.036,0.209-0.071,0.409-0.071,0.618c-0.108,0-0.224,0-0.338,0.022c-0.436-0.231-0.88-0.456-1.295-0.682
	c0.115-0.117,0.221-0.229,0.372-0.344C70.947,48.924,71.282,49.241,71.473,49.31 M69.906,63.352
	c0.172,7.294,0.785,14.719,0.528,22.129c-0.103,0.223-0.209,0.451-0.295,0.681c-0.928,0.316-2.093,0.158-2.964,0.205
	c-0.487-0.136-0.953-0.271-1.419-0.386c0.233-7.655,0.487-15.312,0.74-22.969C67.751,62.968,68.446,62.921,69.906,63.352
	 M66.881,60.619c0.932,0.139,1.778,0.231,2.858,0.705c-0.021,0.164-0.021,0.323-0.021,0.481c-0.552,0.045-1.1,0.112-1.631,0.18
	c-0.446-0.045-0.888-0.088-1.333-0.115C66.37,61.142,66.604,61.122,66.881,60.619 M65.548,57.205c0.331,0.667,0.506,1.681,0,2.232
	c-0.025-0.026-0.045-0.047-0.045-0.069C65.466,59.223,64.895,57.205,65.548,57.205 M63.655,55.48
	c0.091-0.204,0.189-0.378,0.317-0.543c0.409,0.201,0.824,0.403,1.264,0.607c0.03,0.168-0.128,1.026-0.196,0.983
	C64.564,56.155,64.094,55.819,63.655,55.48 M63.517,57.041c0.122-0.145,0.258-0.291,0.394-0.397c0.4,0.29,0.8,0.574,1.233,0.9
	c0,0.075-0.194,0.504-0.297,0.533C64.381,57.722,63.942,57.364,63.517,57.041 M64.162,59.406c-0.529-0.815-0.505-0.879-0.444-1.561
	c0.414,0.268,0.973,0.782,0.973,1.631C64.508,59.442,64.32,59.406,64.162,59.406 M63.387,59.143
	c0.408,0.431,2.146,2.599,0.863,1.914C63.972,60.859,62.241,59.143,63.387,59.143 M62.407,60.981
	c0.508-0.548,1.384,0.215,2.062,0.764c-0.032,0.111-0.065,0.218-0.065,0.356c-0.137,0-0.274,0.042-0.404,0.075
	C63.118,61.996,62.812,61.382,62.407,60.981 M63.958,64.015c-0.911-0.481-1.439-0.955-0.887-1.685
	C63.278,62.465,64.931,63.332,63.958,64.015 M63.838,66.314c0,0.032,0,0.061,0.029,0.096c-0.151,0.098-0.295,0.223-0.417,0.356
	l-1.262-0.776c-0.029-0.26-0.029-0.26,0.064-0.42C62.762,65.799,63.3,66.057,63.838,66.314 M62.302,64.158
	c0.434-0.468,1.268-0.128,1.786,0.434c-0.084,0.122-0.145,0.278-0.2,0.434h-0.724c-0.284-0.248-0.573-0.465-0.862-0.682V64.158z
	 M70.271,47.221c-0.139-0.074-0.658-0.264-0.658-0.407c0.466-0.411,0.339-0.458,0.953,0.088
	C70.503,47.016,70.356,47.198,70.271,47.221 M71.111,48.425c-0.074-0.071-0.498,0.112-0.562,0.147
	c-0.206-0.077-0.797-0.356-0.959-0.427C69.752,47.966,70.306,47.659,71.111,48.425 M77.617,90.103
	c0.593,0.801,0.867,1.301,1.312,2.484c-1.418,0.433-2.563,0.526-3.921,0.546c-1.205-0.045-2.325-0.2-3.299-0.431l0.062-9.864
	c-0.193-3.876-2.519-27.207-1.501-28.303c0.233,0.526,1.48-0.045,1.713,0.732c-0.061,0.092-0.126,0.18-0.192,0.296
	c-0.699-0.363-0.928-0.296-1.541-0.296c0.38,4.101,1.84,7.721,2.114,12.143c0.126,1.094,0.699,1.505,0.466,3.007
	c0.106,0.162,0.233,0.317,0.36,0.481c-1.08,4.076,4.382,12.233,1.058,16.519c-0.552,0.452-1.099,0.91-1.627,1.364
	c0,0.682,0,1.367,0.016,2.052C75.394,91.856,74.947,90.469,77.617,90.103 M74.396,89.194c0.021,0.16,0.046,0.316,0.087,0.479
	c-0.467,0.636-0.467,0.636-0.507,0.613c-0.254-0.139-0.512-0.249-0.765-0.363C73.296,88.942,73.443,88.989,74.396,89.194
	 M79.583,86.96c-0.232,0.341-4.215,2.87-4.255,2.847c-0.32-0.524-0.638-1.047-0.933-1.548C75.921,87.348,77.785,85.59,79.583,86.96
	 M75.921,85.455c0.171,0,0.319-0.068,0.678,0.23V85.8c-0.171,0.115-0.335,0.156-0.466,0.156c-0.086-0.023-0.168-0.041-0.234-0.041
	C75.899,85.753,75.899,85.59,75.921,85.455 M77.172,84.453c-0.046,0.182-0.172,0.662-0.295,0.595
	c-0.364-0.141-0.724-0.249-1.062-0.366c-0.021-0.139-0.021-0.273-0.021-0.413C76.068,83.973,76.792,83.905,77.172,84.453
	 M77.085,83.177c-0.02,0.045-0.04,0.09-0.065,0.16h-0.143c-0.319-0.09-0.637-0.18-0.956-0.249
	C76.305,82.838,76.58,82.721,77.085,83.177 M76.812,81.763c0,0.142-0.319,0.758-0.425,0.709c-0.659-0.275-0.781-0.567-1.059-0.934
	C75.945,81.446,76.068,81.376,76.812,81.763 M75.876,79.876c0.192,0.155,0.405,0.319,0.617,0.478
	c-0.086,0.138-0.168,0.272-0.253,0.433h-0.807c-0.147-0.181-0.272-0.364-0.4-0.525C75.308,80.125,75.585,79.984,75.876,79.876
	 M76.501,78.836c-0.052,0.143-0.328,0.349-0.488,0.411c-1.05-0.148-0.916-0.411-1.348-1.134
	C75.445,78.173,75.638,78.139,76.501,78.836 M76.133,68.093c-0.024-0.182-0.041-0.364-0.041-0.524
	c1.525,0.137,2.453,1.004,3.79,2.141c-0.086,0.092-0.171,0.186-0.299,0.186C78.418,69.283,77.278,68.688,76.133,68.093
	 M77.999,69.869c0,0.777-0.74,1.076-1.317,1.527c0,0.706-0.102,1.529-0.294,2.374c-0.062,0-0.106,0.02-0.147,0.043
	c-0.066-0.023-0.131-0.043-0.172-0.07c-0.062-1.085-0.83-4.001-0.192-4.69C76.66,69.187,77.126,69.301,77.999,69.869 M71.922,51.688
	c0.674,0.934,1.586,4.376,2.519,4.943c0.273,2.986,2.306,5.45,3.156,8.547c-0.679,0.384-1.97,1.594-2.417,1.684
	C74.482,66.11,72.11,53.488,71.922,51.688 M70.881,56.256c0.449-0.479,1.02,0.031,1.652,0.476c-0.099,0.101-0.19,0.206-0.283,0.344
	c-0.288-0.034-0.57-0.034-0.828-0.034C71.226,56.766,71.042,56.493,70.881,56.256 M71.003,57.754
	c0.574-0.196,1.016-0.35,1.704,0.116c-0.253,0.276-0.4,0.312-0.618,0.357L71.003,57.754z M71.433,59.114
	c-0.039-0.168-0.078-0.332-0.078-0.465c0.436,0,0.908,0,1.382,0.046c0.083,0.164,0.159,0.336,0.236,0.553
	c-0.077,0-0.153,0-0.236,0.041C72.301,59.202,71.866,59.16,71.433,59.114 M71.7,60.295c0-0.415,0.111-0.351,0.223-0.588
	c0.495,0.237,0.99,0.474,1.484,0.74c-0.303,0.324-0.632,0.234-0.936,0.268C72.2,60.566,71.95,60.417,71.7,60.295 M73.232,62.073
	c-0.392-0.286-0.784-0.587-1.146-0.847l0.999-0.193l0.574,0.52C73.659,61.913,73.384,62.044,73.232,62.073 M71.942,62.371
	c0.072-0.107,0.139-0.219,0.205-0.295c0.484,0.371,0.96,0.775,1.443,1.182c-0.105,0.106-0.204,0.221-0.278,0.371h-0.165
	C72.253,63.258,72.253,62.851,71.942,62.371 M72.498,64.228v-0.416c0.542,0.125,1.088,0.259,1.658,0.416
	c-0.238,0.261-0.302,0.357-0.541,0.357C73.226,64.457,72.864,64.329,72.498,64.228 M73.137,65.176c0.357,0,0.708,0.026,1.069,0.05
	c0.086,0.171,0.176,0.332,0.267,0.526c-0.112,0.096-0.224,0.219-0.335,0.337l-0.735-0.146
	C73.317,65.681,73.228,65.419,73.137,65.176 M73.163,66.954c0.368-0.143,0.976-0.657,1.584-0.174v0.317l-0.399,0.254
	C73.847,67.325,73.34,67.238,73.163,66.954 M73.34,68.457c-0.257-0.867,0.973-0.158,1.313-0.023c0,0.09,0.02,0.524-0.151,0.436
	C74.102,68.735,73.721,68.596,73.34,68.457 M73.498,70.014c0-0.206,0-0.408,0.032-0.579c0.595,0.171,1.19,0.344,1.806,0.519
	c-0.324,0.292-0.868,0.35-1.075,0.381C73.983,70.218,73.742,70.098,73.498,70.014 M73.718,71.326
	c-0.032-0.204-0.032-0.375-0.032-0.547c0.599-0.101,1.01,0.241,1.614,0.786c-0.189,0.135-0.348,0.306-0.513,0.477
	C74.416,71.803,74.065,71.565,73.718,71.326 M74.155,73.135l-0.306-0.658c0.641-0.197,1.149,0.185,1.944,0.577v0.41
	c-0.079,0-0.158,0.029-0.233,0.054C75.078,73.382,74.62,73.242,74.155,73.135 M74.192,74.048c0.696,0,0.927-0.172,1.723,0.434
	c-0.172,0.145-0.299,0.284-0.434,0.419C74.824,74.626,74.391,74.338,74.192,74.048 M74.521,76.646
	c0.525,0.161,1.05,0.345,1.608,0.534c-0.032,0.221-0.032,0.478-0.032,0.726c-0.142-0.028-0.288-0.028-0.435-0.028
	C74.875,77.747,74.289,77.216,74.521,76.646 M74.227,75.49v-0.155c0.804-0.42,0.804-0.293,1.909,0.474v0.164l-0.356,0.285
	C74.917,76.096,74.611,75.841,74.227,75.49 M70.435,94.705c3.115,0,6.185-0.364,9.403,0.458c0.025,1.117,0.045,2.252,0.086,3.394
	c-0.552,0.089-1.1,0.206-1.631,0.32c-2.772-0.185-5.504-0.114-8.132-0.433C70.16,97.26,70.038,95.412,70.435,94.705 M83.289,98.945
	l-1.686-0.363c-0.407-1.221-1.23-2.986-0.599-3.033c0.26-0.019,2.224,2.327,2.481,3.144C83.416,98.763,83.354,98.853,83.289,98.945
	 M88.9,105.805c-3.664,1.117-10.396,1.455-14.08,1.455c-1.671-0.546-1.165-1.663-1.124-3.165c4.109-0.48,8.406-0.25,12.664-0.117
	v-0.959c-2.16,0-7.41,1.28-7.41-1.887c0.466-0.318,1.059-0.115,1.733-0.045c-0.146,0.249-0.293,0.501-0.421,0.778
	c0.107,0.153,0.233,0.315,0.36,0.498c0.466,0,0.932,0,1.398,0.021l-0.126-1.253c-0.258-0.045-0.491-0.092-0.72-0.115
	C86.319,100.2,85.681,100.674,88.9,105.805 M77.826,100.565c0.106,0.639,0.126,1.408,0.045,2.161
	c-0.994-0.024-1.972-0.024-2.944-0.024c-2.69,0-7.221,0.413-9.486-0.387l0.062-2.596C68.746,99.72,74.927,99.151,77.826,100.565
	 M54.706,97.029c0-1.386,0.613-3.027,1.271-4.146c4.044,0.159,8.509,0.57,12.683,1.163c0.552,0.294,0.106,4.876,0.066,4.83
	C64.129,98.395,58.814,98.581,54.706,97.029 M64.616,99.72c0.02,0.73,0.106,1.567,0.02,2.549c-0.065-0.02-0.127-0.02-0.188-0.02
	c-5.148-0.319-9.469-1.366-14.359-2.643c0.127-1.117,0.339-1.779,0.679-2.645C55.383,98.126,59.874,98.808,64.616,99.72
	 M56.186,104.912c-0.294-0.635-0.102-1.729-0.061-2.186c4.975,0,10.012,1.275,15.246,1.414c0.38,0.046,0.74,0.046,1.226,0.388
	c0,0.661,0,1.343,0.025,2.026c-0.49,0.088-0.977,0.205-1.464,0.32C66.243,106.511,60.699,106.625,56.186,104.912 M64.636,111.047
	c-0.086,0-0.151,0.018-0.213,0.041c-4.889-0.91-9.931-2.118-14.526-3.533c0.045-1,0.233-1.864,0.511-2.708
	c2.093,0,5.544,1.5,7.772,2.113C61.06,107.328,66.456,106.122,64.636,111.047 M49.35,103.96c0,0.568-0.491,2.777-1.312,2.777
	c-3.03-0.799-6.035-2.485-8.517-4.057c0-0.815,0.36-2.007,0.703-2.577C43.355,101.175,46.127,102.315,49.35,103.96 M41.578,98.373
	c2.265-1.207,9.399,2.644,12.494,3.646c1.354,0.549,0.994,0.867,0.336,2.233h-0.123C51.782,103.365,42.996,101.43,41.578,98.373
	 M36.896,93.065c-1.565-1.438-2.326-2.072-3.152-3.804c0.659-0.979,0.445-1.779,0.912-2.712c1.398,0.914,2.518,1.709,3.872,3.028
	C38.527,90.354,36.92,93.065,36.896,93.065 M39.227,90.605c3.365,1.779,6.799,4.124,10.418,6.127
	c-0.087,0.824-0.336,1.689-0.655,2.576c-0.061,0-0.131,0-0.171,0.022c-3.938-1.705-7.58-3.283-10.99-5.561
	C37.829,92.499,38.653,91.493,39.227,90.605 M54.533,92.702c-0.249,0.752-0.695,4.009-1.586,4.009
	c-4.236-1.208-8.406-3.921-11.857-6.379c0.826-1.252,1.632-2.301,2.605-3.396C44.647,86.937,53.008,90.878,54.533,92.702
	 M41.299,74.724c-0.143-0.364-0.295-0.705-0.422-1.048c0.279-0.252,0.279-0.252,0.361-0.252
	C41.516,73.721,41.532,74.974,41.299,74.724 M42.002,73.79c-0.107-0.229-0.213-0.452-0.319-0.662
	c0.106-0.155,0.233-0.296,0.36-0.434C42.084,72.811,42.337,74.156,42.002,73.79 M45.093,85.367c-0.086,0-0.172,0-0.258,0.02
	c-3.491-0.615-4.865-7.29-3.066-9.817C44.688,72.65,46.385,82.838,45.093,85.367 M61.268,89.214c-0.208-0.02-0.421-0.02-0.633-0.02
	c-0.148-0.162-0.295-0.319-0.426-0.479c0.107-0.187,0.303-0.409,0.466-0.523C60.993,88.485,61.207,88.509,61.268,89.214
	 M61.774,87.847c-0.695-0.43-1.521-0.977-1.521-1.636C60.805,86.211,61.88,86.87,61.774,87.847 M62.007,85.521l-0.061,0.501
	c-0.107-0.02-0.213-0.02-0.319-0.02c-0.613-0.088-0.487-0.456-0.634-0.73C61.395,84.727,61.395,84.931,62.007,85.521 M62.163,83.952
	c0,0.117,0,0.25,0.017,0.386c-0.106,0.095-0.106,0.095-0.233,0.095c-0.552-0.275-0.724-0.615-0.953-0.938
	c0.021-0.134,0.041-0.247,0.066-0.363C61.586,83.247,61.586,83.609,62.163,83.952 M61.06,76.021l0.061,0.386
	c-0.106,0.096-0.192,0.184-0.274,0.298c-0.127-0.202-0.233-0.406-0.335-0.615L61.06,76.021z M61.395,75.385
	c-0.041,0-0.082,0-0.127,0.022c-0.127-0.09-0.253-0.183-0.36-0.251c0-0.364,0.127-0.364,0.254-0.613
	c-0.295-0.023-0.593-0.047-0.867-0.047c-0.724-2.368-0.319-3.281,0.294-5.491c1.444-0.481,2.821-0.98,4.473-0.98
	c0.041,0.045,0.082,0.113,0.123,0.182c-1.415,2.298-4.064,0.366-3.79,4.033c-0.188,1.051-0.883,1.281,0.11,1.939
	C61.524,74.567,61.672,74.859,61.395,75.385 M62.433,80.966c-0.041,0.092-0.086,0.208-0.126,0.32
	c-0.213-0.046-0.426-0.089-0.614-0.112c-0.082-0.184-0.151-0.343-0.212-0.501C61.839,80.422,61.991,80.561,62.433,80.966
	 M61.627,78.3c1.23,0.53,0.658,1.28,0.592,1.21C61.459,78.984,61.207,78.915,61.627,78.3 M62.499,77.821
	c-0.086,0.069-0.172,0.14-0.237,0.209c-0.168-0.14-0.315-0.276-0.462-0.413c0-0.114,0-0.202,0.02-0.296
	C62.032,77.481,62.261,77.64,62.499,77.821 M63.111,76.62c-0.106,0.111-0.193,0.18-0.319,0.18c-0.233-0.164-0.446-0.297-0.654-0.434
	V76C62.58,75.683,62.751,76.09,63.111,76.62 M62.163,74.815c0.164,0.023,0.336,0.091,0.695,0.341c-0.044,0-0.086,0-0.106,0.021
	l-0.633-0.271C62.118,74.859,62.138,74.839,62.163,74.815 M64.17,72.973c-0.446,0.548-1.272,0.954-1.864,0.954l-0.188-0.272
	C62.731,73.175,63.299,72.333,64.17,72.973 M63.938,70.646c-0.36,0.088-1.419,0.479-1.611,0.407
	c-0.041-0.088-0.086-0.182-0.127-0.252c0.74-0.384,0.973-0.77,1.93-0.703L63.938,70.646z M64.656,71.1
	c0,0.777-1.717,1.165-2.285,1.298l-0.253-0.202C63.046,71.511,63.426,71.376,64.656,71.1 M55.257,73.86
	c0.208,0.114,0.441,0.227,0.679,0.337c0,0.049-0.446,3.582-0.7,3.306C54.112,75.156,54.153,76.09,55.257,73.86 M54.559,69.301
	c0.253-0.161,0.507-0.315,0.781-0.454c0.171,0.319,0.171,0.319,0.278,0.726c-0.086,0.117-0.152,0.251-0.217,0.39h-0.082
	c-0.233-0.047-0.466-0.094-0.695-0.114L54.559,69.301z M53.793,71.443c0.234-0.228,0.491-0.429,0.74-0.642
	c0.319,0.213,0.446,0.117,0.679,0.8c-0.294,0.229-0.654,0.251-0.826,0.298C53.838,71.533,53.838,71.533,53.793,71.443
	 M50.024,71.785c-1.419-0.366-1.902-1.39,0.171-1.39C50.51,70.985,51.042,71.511,50.024,71.785 M53.053,72.034l0.062,0.39
	c0.11-0.091,0.212-0.159,0.319-0.228C54.431,73.379,54.472,76,52.375,76C48.54,75.135,49.876,72.514,53.053,72.034 M56.757,71.194
	c-0.187-0.141-0.359-0.276-0.527-0.393c0-0.108,0-0.222,0.021-0.316c0.085,0.049,0.572,0.208,0.739,0.568
	C56.909,71.1,56.823,71.147,56.757,71.194 M57.543,73.813c-0.086,0.137-0.213,0.296-0.32,0.343
	c-1.038-0.366-1.672-0.844-2.346-1.345c0-0.117,0-0.229,0.02-0.345C55.871,72.533,56.717,72.694,57.543,73.813 M57.351,81.72h0.568
	c0.385-1.938,0.769-3.168,1.591-4.833c0.511,0.029,1.018,0.049,1.55,0.094c-0.299,2.506-0.299,6.427-3.284,7.155
	c-2.179-0.392-1.079-8.317-0.699-9.024c0.209,0.137,0.425,0.296,0.658,0.458C57.734,77.503,57.458,79.557,57.351,81.72
	 M65.294,52.37c-0.024,0.252-0.045,0.503-0.045,0.753c-0.02,0-0.045,0.026-0.065,0.045c-0.72-0.409-0.994-0.957-1.333-1.184v1.529
	c0.531,0.157,1.145-0.071,1.08,1.092c-0.062,0.045-0.124,0.092-0.189,0.159l-1.099-0.977c-1.231,4.283-1.951,9.273-1.738,13.899
	c0.969-0.73,0.969-0.615,2.265-0.393c0.339-2.461,0.572-5.098,1.333-7.22c0.633,2.05,0.086,4.741-0.193,7.065
	c-2.032,0.477-3.172,1.094-4.845,1.752c-0.931,2.008-1.483,2.987-1.336,5.853c0.233,0.049,0.466,0.116,0.699,0.186v0.276
	c-0.932,0.112-1.08,0.909-1.374,1.797h-0.065c-0.066,0,0.106-2.733,0.081-2.983c-2.032-4.785,2.482-11.666,3.41-16.176
	c0.086-1.462,0.765-5.812,1.779-6.425C64.19,51.735,64.742,52.054,65.294,52.37 M62.646,47.45c0-0.135,0-0.135,0.212-0.615
	c0.315,0.181,0.974,0.319,0.912,1.026c-0.086,0.047-0.172,0.092-0.237,0.159C63.238,47.814,62.939,47.634,62.646,47.45
	 M63.508,50.836c-0.104,0.026-0.217,0.085-0.295,0.144c-0.428-0.458-0.856-0.92-1.284-1.348
	C62.44,49.083,63.271,49.949,63.508,50.836 M62.479,48.498c0.04-0.089,0.101-0.181,0.167-0.249c0.273,0.133,0.548,0.297,0.826,0.456
	c0,0.225-0.193,0.387-0.401,0.387C62.792,48.885,62.519,48.591,62.479,48.498 M66.415,41.141c-0.126,0.068-0.233,0.135-0.339,0.203
	L65.503,41v-0.18c0.36-0.296,0.253-0.296,0.932,0.092C66.415,40.98,66.415,41.047,66.415,41.141 M66.436,43.028
	c-0.086,0.162-0.172,0.325-0.319,0.393c-0.209-0.164-0.421-0.299-0.634-0.434c0.066-0.143,0.127-0.276,0.213-0.39
	C65.907,42.621,66.101,42.736,66.436,43.028 M96.565,71.08c-0.045-0.066-0.081-0.115-0.106-0.162
	c0.847-0.797,1.358-1.094,2.437-1.596c0.147,0.228,0.315,0.457,0.487,0.686C98.982,70.734,97.266,70.965,96.565,71.08
	 M100.503,68.05c0.213,0.501,2.183,6.333,1.206,5.288C100.777,71.053,99.424,69.939,100.503,68.05 M96.121,74.313
	c1.186,0.643,3.41,0.755,5.147,1.597c-0.171,0.389-0.446,1.296-0.744,1.619c-2.391-1.141-4.698-2.806-6.243-4.854
	c0.679-0.942,2.347-0.812,3.451-0.934c0,0.043,0,0.088,0.02,0.157c1.378-0.298,1.693-0.885,2.772,0.021l-0.507,0.756
	c-1.566,0-4.105-0.503-5.147,0.615c2.162,0.021,3.921,0.182,6.248,0.683c-0.484,1.595-4.106,0.088-4.977-0.137
	C96.121,73.997,96.121,74.156,96.121,74.313 M83.587,96.461c-1.145-1.458-5.209-5.787-5.209-7.563
	c2.183-1.028,4.15,2.144,5.548,3.824c3.301,3.396,7.619,5.45,11.855,7.634c11.517,5.605,11.517,5.605,11.688,5.742
	c-2.645,3.577-3.978,4.468-8.004,5.032C90.977,109.084,88.541,103.636,83.587,96.461 M96.631,112
	c0.122-0.205,0.274-0.388,0.421-0.569c2.666,0.569,3.708,0.272,6.501-0.433c-0.021,0.662-0.041,1.345-0.041,2.028l-3.516,0.203
	C96.737,112.094,96.737,112.094,96.631,112 M60.846,47.154c-0.335-0.591-0.381-0.843-0.401-1.323
	c0.102-0.113,0.209-0.227,0.335-0.342C61.222,45.812,61.034,47.362,60.846,47.154 M60.495,48.594
	c-0.122,0.134-0.272,0.331-0.423,0.331l-0.632-1.458c0.064-0.127,0.122-0.223,0.209-0.327
	C60.251,47.244,60.338,47.595,60.495,48.594 M59.521,48.769c0,0.323,0,0.647,0.026,0.969c-0.163,0.089-0.327,0.208-0.491,0.324
	c-0.654-1.09-0.522-1.032-0.575-1.939C59.167,48.123,58.94,48.611,59.521,48.769 M57.898,49.481c0.369,0.425,0.943,0.82,0.878,1.827
	c-0.152,0.067-0.298,0.164-0.421,0.264c-0.304-0.554-0.609-1.116-0.908-1.637C57.601,49.78,57.747,49.613,57.898,49.481
	 M57.02,50.836c0.191,0.367,0.412,0.775,0.647,1.186c-0.199,0.732-0.199,0.732-0.265,0.699c-0.353-0.493-0.654-0.948-0.955-1.396
	L57.02,50.836z M56.398,52.274c0.329,0.725,0.417,0.914,0.371,2.108c-0.72-1.029-0.741-1.124-0.804-2.108H56.398z M55.811,55.361
	c-0.718-0.286-0.813-0.989-0.985-1.418c0.102-0.136,0.204-0.241,0.299-0.349C56.313,53.838,55.811,55.361,55.811,55.361
	 M55.062,55.501l0.092,1.165c-0.061,0-0.122,0-0.19,0.028c-0.692-0.608-0.564-0.712-0.509-1.294
	C54.712,55.366,54.712,55.366,55.062,55.501 M113.778,65.38c-0.503,0-3.492,1.597-3.978,2.01c-2.351-2.531-0.74-1.781-2.903-1.213
	c-0.973-1.065-1.946-2.14-2.919-3.189c-0.233,0.072-0.446,0.162-0.658,0.251c0.086,0.549,1.967,4.376,1.631,4.672
	c-1.186-0.685-2.351-1.365-3.516-2.052c-0.188-4.142,4.048-4.535,5.781-7.336c-0.082-0.134-0.147-0.251-0.213-0.363
	c-5.736-0.912-12.449-2.691-17.572,0.319c-0.233,1.365-2.351,7.698-3.091,7.698c-0.531-0.202-1.059-0.404-1.57-0.586
	c0.11-0.354,1.145-0.286,1.464-0.299c-0.553-2.232-0.679-2.989-2.394-4.26c-2.817-3.353-4.489-7.065-6.521-10.755
	c-1.566-2.643-3.999-5.239-4.743-7.793c-0.274-0.092-0.531-0.182-0.785-0.253c-0.102-0.409-0.188-0.797-0.273-1.184
	c-0.7-4.19-3.496-6.378-0.7-10.391c-0.147-0.907-0.278-1.799-0.401-2.686c-0.997-0.617-0.932-0.57-1.271-1.527
	c0.912-0.73,1.925,0.386,2.711,1.141c7.686,1.022,2.69-8.727-1.571-3.649c-2.432-1.049,0.785-3.279,0.279-6.08
	c-1.82-0.617-3.259-1.278-4.809-0.115c-1.5,2.323,0.998,3.668,0.847,6.152c-1.947,0.182-3.325-3.189-5.884-0.979
	c-2.436,8.087,3.197,2.892,6.162,3.416c0.233,1.825-3.369,1.892-0.487,5.605c-4.321,1.161-8.831,1.298-13.128,1.96
	c-0.151,0.479-0.299,0.959-0.446,1.458c0.188,0.114,0.38,0.225,0.593,0.339c-0.021,0.546-0.213,1.188-0.147,1.942l0.572,0.268
	c-0.384,0.846-1.124,0.573-0.045,1.732c2.756,0.412,7.429-0.886,10.504-1.205c0,5.195-14.081,15.56-9.359,19.069
	c0.887-1.046,1.551-2.57,1.807-2.934c0.456-0.653,3.929-6.017,4.501-6.633c0.127,0.045,0.258,0.09,0.405,0.16
	c0.568,1.842-2.224,8.655-2.947,11.119c-0.335,2.14-0.442,4.536-1.583,6.537c-0.903-0.644,0.389-1.11-1.169-1.552
	c0.85-1.999-0.102-1.431,1.738-2.89c-0.168-2.848-3.745-4.033-5.569-5.058c0.147-3.261-1.247-3.51-3.324-2.117
	c0.213,0.157,0.425,0.339,0.654,0.521v0.617c-1.627,1.161-3.385,2.392-4.975,3.418c-1.542-1.006,1.312-7.132,1.672-8.522
	c-0.168-5.195,0.024-9.183-4.952-9.846c-0.401,0.779,0.381,3.991,0.508,5.267c-2.098,2.549-4.384,4.17-2.265,7.242
	c0.298,2.872,0.911,3.257,3.663,3.989c0,0.159,0.02,0.343,0.041,0.523h-2.519c0,0.251,0,0.525,0.021,0.801
	c0.466,0.25,1.991-0.069,2.71-0.143c0,0.164,0,0.346,0.021,0.527c-0.573,0.299-2.138,0.138-2.838,0.299
	c-0.082,1.48-0.233,2.915-0.527,4.373c-0.34,0.57-2.245,3.761-2.605,3.369c1.673-3.369,2.772-6.262-1.23-2.48
	c-2.351,1.045-1.799-1.848-4.04,1.642c-1.611-1.256-1.549-1.415-3.156-1.346c-0.192-0.23-0.38-0.453-0.552-0.682
	c-0.572-0.023-1.12-0.023-1.672-0.023c-0.193,0.362-0.385,0.728-0.552,1.116c0.127,0.338,0.274,0.704,0.425,1.068
	c-0.151,3.714,2.478,3.943,5.25,5.56c-0.466,0.501-3.664-1.388-4.763-1.231c-0.127,0.25-0.254,0.505-0.36,0.757l0.825,1.157
	c1.632,0.138,4.384,2.918,6.015,4.149c-0.278,2.963-0.532,5.925-0.785,8.887c0.147,0.086,0.294,0.202,0.466,0.317
	c-0.257,1.345-1.018,3.739-1.018,5.082c1.398,1.253,0.065,1.82,0,4.168c1.545,1.662,1.124,3.007,1.079,5.562
	c0.217,0.183,0.45,0.364,0.679,0.567c0.025,1.434,0.041,2.894,0.086,4.354c0.339,0.292,0.679,0.59,1.038,0.888
	c0.041,1.799,0.189,3.095,0.589,5.011c-1.161,0.615-2.265,0.411-3.491,1.006l0.445,0.545c3.876,0.205,6.628-1.775,10.205-1.775
	c5.908,3.167,4.89,5.942,11.963,1.932c3.41-0.478,4.322,5.605,9.04,3.079c7.179-5.994,5.36-2.941,11.541,1.481
	c0.786-0.022,1.567-0.022,2.352-0.022c6.162-4.326,3.958-6.219,10.775-0.662c3.239,0.547,5.487-3.876,7.519-3.876
	c5.295,1.895,6.35,2.28,12.024-0.66c-1.799-2.322-2.203,0.96-3.83,0.96c-0.168-0.913,0.045-1.574,0.064-2.326
	c1.652-1.569,3.304-3.144,4.956-4.691v-0.09c-1.059-0.547-2.118-1.075-3.157-1.597c0.087-1.776-0.106-3.717,1.162-4.807
	c-1.162-6.334-0.695-13.238-0.27-19.571c0.441-0.687,0.887-1.368,1.333-2.03c1.778-2.117,4.043-2.665,5.883-4.758l-0.466-0.642
	c-1.839,0.391-2.858,0.775-4.403,1.597C108.651,72.359,117.185,73.068,113.778,65.38"/>
<path fill="#004551" d="M48.974,132.571c0.775,0.248,1.565,0.603,2.136,0.987l-0.781,2.439l-0.966-0.309
	c-0.068-0.442-0.097-0.956-0.073-1.335c-0.234-0.227-0.634-0.489-1.16-0.658c-0.659-0.211-1.298-0.13-1.527,0.587
	c-0.547,1.709,3.74,2.375,2.851,5.151c-0.459,1.434-2.088,2.14-4.342,1.418c-0.658-0.211-1.434-0.561-1.979-0.869l0.752-2.349
	l0.95,0.304c0.078,0.462,0.112,1.011,0.078,1.371c0.161,0.151,0.561,0.364,0.912,0.477c0.732,0.234,1.273,0.055,1.473-0.57
	c0.498-1.557-3.798-2.395-2.929-5.109C44.847,132.611,46.604,131.812,48.974,132.571"/>
<path fill="#004551" d="M41.956,130.064l-0.391,0.699c-0.426,0.037-0.889,0.018-1.314-0.074l-2.937,5.255
	c0.28,0.286,0.559,0.699,0.758,1.067l-0.382,0.686l-3.876-2.167l0.383-0.686c0.418-0.022,0.916-0.001,1.306,0.088l2.938-5.255
	c-0.3-0.313-0.56-0.698-0.751-1.081l0.39-0.698L41.956,130.064z"/>
<path fill="#004551" d="M27.07,122.851l1.805-1.862c1.107,0.337,2.257,0.982,3.25,1.944c1.986,1.924,2.029,4.374,0.235,6.227
	c-2.006,2.069-4.722,2.046-7.028-0.188c-0.673-0.651-1.345-1.459-1.818-2.208l1.794-1.851l0.74,0.716
	c-0.103,0.437-0.282,0.865-0.483,1.227c0.219,0.437,0.56,0.923,1.057,1.404c1.247,1.208,2.745,0.81,3.96-0.444
	c1.17-1.208,1.422-2.837,0.098-4.118c-0.287-0.278-0.596-0.533-0.906-0.7l-1.236,1.276c0.153,0.283,0.262,0.679,0.349,1.03
	l-0.535,0.552l-2.692-2.608l0.535-0.552C26.472,122.717,26.782,122.751,27.07,122.851"/>
<path fill="#004551" d="M26.963,117.142l-0.683,0.418c-0.389-0.175-0.783-0.42-1.109-0.707l-5.135,3.146
	c0.106,0.386,0.147,0.883,0.141,1.301l-0.67,0.41l-2.319-3.785l0.669-0.409c0.376,0.184,0.8,0.446,1.096,0.715l5.134-3.146
	c-0.107-0.421-0.146-0.883-0.126-1.311l0.683-0.418L26.963,117.142z"/>
<path fill="#004551" d="M22.919,109.959l-0.749,0.284c-0.329-0.237-0.686-0.545-0.958-0.9l-5.63,2.134
	c0.031,0.398-0.015,0.91-0.105,1.305l-0.734,0.278l-1.574-4.151l0.734-0.278c0.33,0.237,0.708,0.603,0.944,0.907l5.749-2.18
	l-0.742-1.821c-0.367,0.024-0.932,0.025-1.422-0.003l-0.36-0.948l2.456-0.931L22.919,109.959z"/>
<path fill="#004551" d="M19.558,100.055l-0.784,0.164c-0.288-0.285-0.593-0.646-0.806-1.041l-5.893,1.23
	c-0.032,0.398-0.157,0.896-0.308,1.272l-0.768,0.16l-0.906-4.347l0.768-0.161c0.288,0.286,0.605,0.706,0.79,1.044l6.019-1.256
	l-0.448-1.916c-0.367-0.032-0.925-0.121-1.405-0.224l-0.207-0.993l2.571-0.537L19.558,100.055z"/>
<path fill="#004551" d="M9.586,82.412l3.91-0.322c2.395-0.191,3.754,1.218,3.949,3.483c0.237,2.755-1.085,3.824-3.016,3.991
	l-4.196,0.362c-0.087,0.285-0.313,0.659-0.486,0.891l-0.781,0.066L8.63,86.98l0.781-0.066c0.234,0.288,0.504,0.619,0.646,0.962
	l3.861-0.333c1.452-0.125,2.27-0.705,2.136-2.251c-0.107-1.254-0.912-1.817-2.219-1.689l-4.112,0.401
	c-0.065,0.36-0.305,0.751-0.471,1.058L8.47,85.129L8.172,81.67l0.782-0.067C9.165,81.815,9.465,82.129,9.586,82.412"/>
<path fill="#004551" d="M16.882,68.584l-0.801-0.015c-0.235-0.265-0.485-0.623-0.543-0.931l-5.027,0.722v0.015l6.331,2.359
	l-0.027,1.428l-6.496,2.232v0.017l5.05,0.613c0.151-0.35,0.381-0.652,0.61-0.91l0.8,0.014l-0.06,3.256l-0.801-0.014
	c-0.188-0.22-0.391-0.469-0.547-0.732l-6.018-1.109c-0.151,0.365-0.365,0.716-0.579,1.034l-0.785-0.015l0.063-3.44l5.789-2.075
	l0.001-0.031l-5.71-2.194l0.064-3.44l0.8,0.014c0.186,0.326,0.404,0.668,0.525,1.07l6.058-1.041
	c0.133-0.244,0.346-0.501,0.574-0.696l0.8,0.014L16.882,68.584z"/>
<path fill="#004551" d="M13.894,58.35c-0.079,0.656-0.681,1.11-1.365,1.028c-0.684-0.082-1.163-0.666-1.084-1.321
	c0.079-0.656,0.683-1.125,1.367-1.043S13.972,57.694,13.894,58.35"/>
<path fill="#004551" d="M13.116,43.307l3.811,0.931c2.332,0.576,3.176,2.342,2.646,4.553c-0.646,2.69-2.238,3.287-4.122,2.834
	l-4.095-0.983c-0.173,0.243-0.505,0.527-0.742,0.691L9.851,51.15l0.914-3.81l0.763,0.183c0.131,0.348,0.282,0.748,0.309,1.117
	l3.767,0.905c1.417,0.34,2.376,0.049,2.738-1.46c0.294-1.225-0.29-2.013-1.571-2.305l-4.028-0.919
	c-0.175,0.321-0.526,0.616-0.781,0.855l-0.763-0.183l0.81-3.377l0.763,0.183C12.905,42.608,13.091,43,13.116,43.307"/>
<path fill="#004551" d="M19.354,28.721l6.636,3.376l-0.829,1.63l-7.822,1.002l4.643,2.069c0.267-0.243,0.606-0.45,0.994-0.684
	l0.713,0.363l-1.693,3.328l-0.713-0.363c-0.04-0.451-0.066-0.895-0.012-1.247l-5.317-2.792c-0.295,0.298-0.676,0.553-1.05,0.793
	l-0.699-0.355l1.574-3.095l6.978-0.897l-4.058-1.841c-0.253,0.25-0.599,0.437-0.953,0.601l-0.699-0.355l1.484-2.917l0.7,0.356
	C19.298,28.055,19.365,28.382,19.354,28.721"/>
<path fill="#004551" d="M29.185,27.662l-0.592-0.539c0.061-0.423,0.186-0.87,0.371-1.263l-4.45-4.056
	c-0.342,0.208-0.808,0.387-1.212,0.497l-0.58-0.529l2.991-3.281l0.581,0.528c-0.073,0.412-0.207,0.893-0.383,1.252l4.45,4.056
	c0.374-0.22,0.808-0.387,1.223-0.486l0.592,0.539L29.185,27.662z"/>
<path fill="#004551" d="M38.679,10.629l1.415,7.897l-1.613,0.984l-6.395-4.88c-0.254,0.024-0.555-0.056-0.852-0.1l-0.408-0.67
	l3.292-2.007l0.409,0.67c-0.141,0.33-0.299,0.632-0.517,0.953l4.494,3.506l0.027-0.016l-1.308-5.449
	c-0.32,0.064-0.756,0.029-1.083,0.023l-0.409-0.671l2.807-1.711l0.409,0.67C38.881,10.076,38.822,10.393,38.679,10.629"/>
<path fill="#004551" d="M47.27,15.042l-0.219-0.77c0.268-0.293,0.601-0.637,0.98-0.878l-1.644-5.776
	c-0.404-0.018-0.918-0.138-1.296-0.231l-0.214-0.754l6.383-1.817l0.605,2.126l-0.96,0.273C50.667,7,50.318,6.617,50.156,6.33
	l-1.832,0.521L49.021,9.3l1.507-0.429c0.018-0.272,0.14-0.573,0.225-0.78l0.798-0.227l0.684,2.403l-0.798,0.227
	c-0.171-0.152-0.471-0.366-0.611-0.576l-1.507,0.429l0.758,2.665l1.832-0.522c-0.012-0.379,0.077-0.854,0.167-1.212L53.05,11
	l0.632,2.218L47.27,15.042z"/>
<path fill="#004551" d="M62.061,7.172l-0.704,0.062l-0.235-2.681c0.15-0.045,0.424-0.085,0.547-0.096
	c1.148-0.1,1.742,0.346,1.822,1.255C63.555,6.446,63.163,7.075,62.061,7.172 M66.797,11.58l-0.113-0.939
	c-1.164,0.263-1.307-2.94-2.811-3.033c1.135-0.421,1.77-1.265,1.677-2.333c-0.149-1.692-1.404-2.289-3.623-2.094
	c-1.225,0.107-2.673,0.298-3.025,0.329l-1.087,0.096l0.069,0.781c0.37,0.177,0.803,0.364,1.227,0.455l0.527,5.999
	c-0.433,0.167-0.842,0.428-1.128,0.678l0.07,0.798l4.132-0.363l-0.07-0.797c-0.277-0.169-0.636-0.395-0.984-0.493L61.462,8.43
	l0.49-0.042c1.5-0.132,1.475,3.632,3.465,3.458C65.892,11.804,66.424,11.725,66.797,11.58"/>
<path fill="#004551" d="M74.058,11.893c-0.813-0.038-1.668-0.174-2.319-0.396l0.12-2.56l1.012,0.047
	c0.181,0.409,0.343,0.898,0.418,1.27c0.284,0.157,0.739,0.307,1.291,0.333c0.691,0.032,1.286-0.213,1.321-0.965
	c0.084-1.792-4.228-1.319-4.093-4.23c0.07-1.504,1.46-2.61,3.823-2.5c0.69,0.032,1.53,0.167,2.138,0.323l-0.115,2.464l-0.998-0.046
	c-0.195-0.426-0.371-0.947-0.431-1.303c-0.195-0.105-0.636-0.206-1.004-0.223c-0.768-0.036-1.244,0.279-1.274,0.935
	c-0.076,1.632,4.29,1.321,4.157,4.169C78.031,10.779,76.544,12.008,74.058,11.893"/>
<path fill="#004551" d="M82.672,12.465l0.143-0.788c0.391-0.173,0.836-0.304,1.267-0.356l1.076-5.924
	c-0.358-0.179-0.756-0.48-1.063-0.763l0.14-0.773l4.368,0.794l-0.141,0.773c-0.387,0.157-0.866,0.298-1.263,0.339l-1.077,5.925
	c0.385,0.201,0.756,0.48,1.061,0.779l-0.143,0.788L82.672,12.465z"/>
<path fill="#004551" d="M100.466,11.277c-0.026-0.476-0.056-1.108,0.004-1.55L99.1,9.182l-2.278,5.73
	c0.335,0.237,0.646,0.619,0.9,0.979l-0.296,0.744l-4.14-1.647l0.296-0.744c0.446-0.081,0.92-0.151,1.327-0.093l2.278-5.729
	l-1.371-0.545c-0.239,0.353-0.727,0.831-1.06,1.129l-0.885-0.352l0.976-2.456l7.495,2.981l-0.977,2.456L100.466,11.277z"/>
<path fill="#004551" d="M109.794,15.955c-0.142,0.357-0.293,0.726-0.419,1.136l-0.806,2.478l-1.961-1.532l2.272-1.435
	c0.345-0.218,0.645-0.451,0.902-0.656L109.794,15.955z M112.054,15.485l-1.755-1.372l-6.795,4.18
	c-0.273-0.051-0.621-0.079-0.921-0.069l-0.493,0.63l2.554,1.996l0.493-0.631c-0.087-0.312-0.199-0.643-0.386-0.952l0.913-0.546
	l2.482,1.94l-0.309,1.018c-0.333-0.098-0.705-0.145-1.029-0.154l-0.493,0.631l3.038,2.374l0.493-0.631
	c-0.037-0.252-0.134-0.552-0.241-0.839L112.054,15.485z"/>
<path fill="#004551" d="M120.622,29.389c0.241-0.411,0.566-0.954,0.86-1.289l-0.84-1.211l-5.067,3.514
	c0.149,0.383,0.197,0.873,0.21,1.313l-0.658,0.456l-2.54-3.66l0.658-0.456c0.417,0.179,0.85,0.382,1.157,0.656l5.066-3.514
	l-0.84-1.212c-0.395,0.162-1.066,0.291-1.509,0.355l-0.543-0.783l2.172-1.506l4.597,6.626l-2.171,1.506L120.622,29.389z"/>
<path fill="#004551" d="M118.117,37.852l0.743-0.297c0.355,0.238,0.702,0.546,0.975,0.884l5.59-2.236
	c-0.038-0.399,0.004-0.895,0.081-1.307l0.729-0.291l1.649,4.121l-0.729,0.292c-0.339-0.245-0.713-0.575-0.96-0.89l-5.59,2.236
	c0.035,0.433-0.004,0.895-0.095,1.312l-0.744,0.298L118.117,37.852z"/>
<path fill="#004551" d="M121.626,49.088c-0.18-0.794-0.277-1.654-0.236-2.341l2.498-0.568l0.225,0.989
	c-0.346,0.283-0.774,0.57-1.112,0.741c-0.076,0.317-0.099,0.794,0.024,1.334c0.153,0.674,0.548,1.183,1.282,1.016
	c1.749-0.398,0.143-4.428,2.985-5.074c1.468-0.334,2.905,0.71,3.429,3.017c0.153,0.674,0.247,1.519,0.259,2.146l-2.406,0.547
	l-0.221-0.974c0.358-0.302,0.814-0.61,1.14-0.763c0.05-0.216,0.029-0.668-0.053-1.028c-0.17-0.748-0.6-1.123-1.241-0.978
	c-1.592,0.363-0.129,4.488-2.909,5.12C123.761,52.621,122.179,51.516,121.626,49.088"/>
<path fill="#004551" d="M127.25,58.351c-0.078-0.656,0.4-1.239,1.084-1.321s1.286,0.372,1.365,1.028
	c0.079,0.655-0.398,1.254-1.082,1.336C127.934,59.476,127.329,59.006,127.25,58.351"/>
<path fill="#004551" d="M124.071,64.556l0.8-0.034c0.238,0.328,0.48,0.733,0.626,1.157l6.015-0.255
	c0.096-0.388,0.3-0.858,0.51-1.205l0.784-0.033l0.188,4.435l-0.784,0.033c-0.238-0.328-0.483-0.794-0.61-1.158l-6.143,0.261
	l0.131,1.962c0.356,0.093,0.893,0.27,1.349,0.451l0.043,1.013l-2.624,0.111L124.071,64.556z"/>
<path fill="#004551" d="M131.442,83.897l-3.919-0.18c-2.399-0.117-3.567-1.688-3.471-3.961c0.116-2.762,1.563-3.654,3.499-3.572
	l4.208,0.177c0.123-0.272,0.394-0.614,0.595-0.821l0.784,0.033l-0.164,3.914l-0.784-0.033c-0.195-0.314-0.421-0.679-0.518-1.036
	l-3.871-0.163c-1.456-0.062-2.341,0.408-2.406,1.959c-0.053,1.259,0.672,1.919,1.985,1.959l4.129,0.129
	c0.111-0.35,0.398-0.706,0.603-0.99l0.783,0.033l-0.145,3.469l-0.784-0.033C131.784,84.542,131.526,84.193,131.442,83.897"/>
<path fill="#004551" d="M130.515,93.227c-0.019,0.309-0.065,0.581-0.129,0.96c-0.19,1.137-0.812,1.453-1.538,1.331
	c-0.727-0.121-1.198-0.605-0.984-1.878c0.053-0.318,0.101-0.606,0.155-0.831L130.515,93.227z M126.929,92.626l-0.127,0.757
	c-0.221,1.318-0.803,2.078-1.687,1.931c-0.743-0.125-1.307-0.733-1.111-1.9c0.089-0.53,0.223-0.944,0.366-1.216L126.929,92.626z
	 M132.199,90.253l-0.774-0.13c-0.282,0.327-0.577,0.729-0.748,1.074l-5.94-0.995c-0.057-0.43-0.194-0.873-0.373-1.261l-0.79-0.133
	l-0.198,1.182c-0.195,1.167-0.402,2.207-0.524,2.934c-0.501,2.985,0.751,4.332,2.078,4.555c0.948,0.158,1.957-0.343,2.339-1.649
	c0.093,1.091,0.76,1.67,1.565,1.804c1.422,0.239,2.31-0.702,2.689-2.96c0.188-1.121,0.358-2.525,0.483-3.268L132.199,90.253z"/>
<path fill="#004551" d="M121.199,100.976l0.758,0.257c0.089,0.387,0.184,0.856,0.167,1.305l5.689,1.926
	c0.245-0.323,0.635-0.678,0.926-0.936l0.743,0.251l-2.128,6.286l-2.094-0.709l0.32-0.946c0.312-0.071,0.826-0.142,1.154-0.111
	l0.611-1.805l-2.412-0.815l-0.502,1.483c0.213,0.169,0.391,0.44,0.514,0.628l-0.266,0.786l-2.367-0.801l0.267-0.786
	c0.221-0.055,0.568-0.18,0.82-0.176l0.503-1.484l-2.625-0.888l-0.611,1.804c0.319,0.205,0.66,0.547,0.904,0.825l-0.325,0.96
	l-2.184-0.74L121.199,100.976z"/>
<path fill="#004551" d="M114.912,115.007c1.525-2.525,3.587-3.057,5.889-1.665c2.701,1.631,3.145,4.179,1.739,6.506
	c-0.524,0.868-1.055,1.499-1.518,1.955l-2.467-1.49l0.54-0.895c0.495,0.048,1.035,0.177,1.444,0.335
	c0.289-0.167,0.601-0.499,0.84-0.893c0.691-1.146,0.193-2.396-1.466-3.398c-1.576-0.953-2.946-0.667-3.97,1.029
	c-0.326,0.539-0.59,1.224-0.666,1.877l-1.199-0.401C114.045,117.032,114.332,115.967,114.912,115.007"/>
<path fill="#004551" d="M110.97,120.755l0.549,0.583c-0.102,0.383-0.24,0.842-0.465,1.23l4.121,4.368
	c0.368-0.171,0.879-0.3,1.257-0.393l0.538,0.57l-4.828,4.555l-1.517-1.607l0.727-0.687c0.31,0.084,0.796,0.263,1.071,0.443
	l1.386-1.307l-1.747-1.854l-1.14,1.076c0.109,0.249,0.139,0.573,0.16,0.796l-0.604,0.569l-1.714-1.817l0.603-0.569
	c0.222,0.056,0.587,0.106,0.808,0.229l1.14-1.076l-1.901-2.015l-1.386,1.307c0.185,0.331,0.326,0.793,0.411,1.153l-0.737,0.696
	l-1.583-1.679L110.97,120.755z"/>
<path fill="#004551" d="M98.247,138.311l-3.273-6.687l1.642-0.805l6.853,3.901l-2.466-4.444c-0.36,0.033-0.755-0.005-1.206-0.052
	l-0.352-0.719l3.353-1.643l0.352,0.721c-0.239,0.384-0.485,0.754-0.74,1.004l2.571,5.427c0.415-0.062,0.872-0.035,1.316-0.003
	l0.345,0.705l-3.119,1.525l-6.115-3.477l2.136,3.91c0.353-0.048,0.741,0.012,1.123,0.092l0.345,0.705l-2.94,1.438l-0.344-0.704
	C97.891,138.877,98.034,138.574,98.247,138.311"/>
<path fill="#004551" d="M87.75,133.546c0.795-0.176,1.655-0.27,2.342-0.225l0.554,2.501l-0.99,0.221
	c-0.281-0.349-0.565-0.777-0.735-1.117c-0.316-0.077-0.793-0.103-1.333,0.017c-0.675,0.15-1.186,0.542-1.024,1.277
	c0.388,1.751,4.427,0.166,5.058,3.012c0.325,1.47-0.727,2.899-3.036,3.411c-0.675,0.15-1.521,0.239-2.148,0.247l-0.534-2.408
	l0.975-0.215c0.3,0.359,0.606,0.816,0.757,1.145c0.216,0.05,0.668,0.031,1.028-0.049c0.75-0.166,1.127-0.594,0.985-1.234
	c-0.353-1.595-4.487-0.153-5.103-2.937C84.207,135.66,85.32,134.085,87.75,133.546"/>
<path fill="#004551" d="M79.817,135.082l0.064,0.798c-0.333,0.269-0.73,0.51-1.133,0.67l0.483,6.002
	c0.392,0.081,0.854,0.27,1.224,0.465l0.063,0.782l-4.426,0.356l-0.063-0.783c0.335-0.251,0.761-0.511,1.135-0.653l-0.483-6.003
	c-0.424-0.094-0.854-0.269-1.226-0.479l-0.064-0.798L79.817,135.082z"/>
<path fill="#004551" d="M68.429,135.355c0.814,0.02,1.672,0.137,2.327,0.345l-0.062,2.562l-1.014-0.024
	c-0.19-0.406-0.362-0.89-0.446-1.261c-0.288-0.151-0.745-0.29-1.298-0.304c-0.691-0.018-1.281,0.24-1.3,0.993
	c-0.044,1.793,4.258,1.226,4.187,4.139c-0.037,1.505-1.401,2.641-3.766,2.583c-0.692-0.018-1.534-0.134-2.145-0.277l0.06-2.465
	l0.998,0.024c0.205,0.422,0.392,0.938,0.461,1.293c0.197,0.101,0.64,0.191,1.009,0.2c0.768,0.02,1.237-0.306,1.253-0.962
	c0.039-1.633-4.319-1.227-4.25-4.076C64.481,136.557,65.941,135.294,68.429,135.355"/>
<path fill="#004551" d="M57.445,138.466c0.654,0.095,1.093,0.708,0.995,1.39c-0.099,0.682-0.693,1.146-1.347,1.052
	c-0.654-0.095-1.108-0.71-1.01-1.393C56.182,138.834,56.791,138.371,57.445,138.466"/>
<path fill="#004551" d="M459.285,90.966l-5.318-7.543l5.053-7.146h-3.227l-4.609,6.857v-6.857h-2.801v14.689h2.801v-6.987
	l4.898,6.987H459.285z M443.178,77.411c-1.27-0.956-2.738-1.401-4.609-1.401c-2.426,0-4.074,0.601-5.541,2.046
	c-1.445,1.424-2.248,3.361-2.248,5.499c0,2.294,0.912,4.477,2.471,5.877c1.379,1.246,3.025,1.824,5.318,1.824
	c0.869,0,1.648-0.089,2.359-0.245c0.668-0.155,1.047-0.289,1.982-0.711l-0.512-2.358c-1.314,0.513-2.182,0.69-3.229,0.69
	c-3.205,0-5.297-2.071-5.297-5.233c0-2.782,2.023-4.787,4.852-4.787c1.291,0,2.426,0.334,3.383,1.024L443.178,77.411z
	 M426.508,90.966v-2.379h-6.434v-3.92h5.031v-2.379h-5.031v-3.632h6.145v-2.38h-8.945v14.689H426.508z M408.43,86.738
	c0,0.758-0.379,1.403-1.002,1.716c-0.424,0.199-0.824,0.267-1.693,0.267h-1.826v-4.054h1.826
	C407.473,84.667,408.43,85.401,408.43,86.738 M408.006,80.372c0,1.247-0.846,1.916-2.428,1.916h-1.67v-3.787h1.826
	C407.16,78.501,408.006,79.19,408.006,80.372 M411.498,87.05c0-2.294-1.4-3.74-3.625-3.784c1.156-0.066,1.758-0.334,2.402-1.066
	c0.533-0.624,0.844-1.493,0.844-2.317c0-0.958-0.443-2.004-1.156-2.626c-0.799-0.734-1.756-0.979-3.672-0.979h-5.318v14.689h5.986
	C409.896,90.966,411.498,89.588,411.498,87.05 M394.553,85.225v-8.95h-2.805v9.106c0,2.115-1.135,3.272-3.271,3.272
	c-2.338,0-3.475-1.091-3.475-3.272v-9.106h-2.779v8.95c0,2.694,0.488,3.918,2.002,4.963c1.111,0.757,2.314,1.068,4.164,1.068
	c1.824,0,3.07-0.334,4.137-1.068C394.062,89.121,394.553,87.919,394.553,85.225 M387.229,74.762c0-0.667-0.533-1.223-1.225-1.223
	c-0.668,0-1.201,0.556-1.201,1.223s0.533,1.201,1.201,1.201C386.695,75.963,387.229,75.429,387.229,74.762 M391.77,74.784
	c0-0.689-0.557-1.222-1.223-1.222c-0.668,0-1.201,0.533-1.201,1.222c0,0.667,0.533,1.2,1.201,1.2
	C391.213,75.984,391.77,75.451,391.77,74.784 M377.684,90.966v-2.379h-6.012V76.276h-2.803v14.689H377.684z M354.332,85.226v-8.949
	h-2.803v9.105c0,2.115-1.135,3.271-3.273,3.271c-2.338,0-3.475-1.091-3.475-3.271v-9.105h-2.779v8.949
	c0,2.694,0.488,3.917,2.002,4.962c1.111,0.757,2.314,1.068,4.164,1.068c1.824,0,3.072-0.334,4.141-1.068
	C353.842,89.121,354.332,87.92,354.332,85.226 M336.795,90.966v-2.379h-7.836l7.836-10.486v-1.824h-11.621v2.38h7.836l-7.969,10.486
	v1.823H336.795z M313.131,78.656v-2.38h-11.617v2.38h4.408v12.31h2.801v-12.31H313.131z M294.738,84.959h-3.406l1.691-5.322
	L294.738,84.959z M299.59,90.966l-5.318-14.691h-2.516l-5.318,14.691h2.938l1.201-3.628h4.918l1.156,3.628H299.59z M292.488,74.718
	c0-0.667-0.533-1.201-1.199-1.201c-0.668,0-1.225,0.534-1.225,1.201s0.557,1.223,1.225,1.223
	C291.955,75.94,292.488,75.385,292.488,74.718 M296.162,74.784c0-0.689-0.557-1.224-1.223-1.224c-0.668,0-1.201,0.534-1.201,1.224
	c0,0.667,0.533,1.2,1.201,1.2C295.605,75.984,296.162,75.451,296.162,74.784 M284.512,78.656v-2.38h-11.617v2.38h4.406v12.31h2.803
	v-12.31H284.512z M268.025,76.276h-2.803v14.689h2.803V76.276z M259.701,77.255c-0.979-0.466-1.379-0.622-2.09-0.845
	c-0.912-0.267-1.779-0.378-2.76-0.378c-1.717,0-2.629,0.244-3.697,0.979c-0.467,0.333-0.844,0.711-1.09,1.09
	c-0.354,0.556-0.578,1.312-0.578,2.047c0,1.604,0.803,2.583,3.404,4.075l2.273,1.292c0.957,0.534,1.291,0.957,1.291,1.58
	c0,0.891-0.848,1.47-2.139,1.47c-0.58,0-1.381-0.155-2.115-0.423c-0.578-0.223-1.023-0.444-2.092-1.023l-1.178,2.581
	c0.422,0.199,0.756,0.355,0.955,0.444c1.535,0.712,2.023,0.89,3.07,1.023c0.424,0.066,0.869,0.089,1.314,0.089
	c3.25,0,5.164-1.535,5.164-4.161c0-1.024-0.379-2.004-1.002-2.627c-0.689-0.69-2.158-1.626-4.406-2.828
	c-1.047-0.557-1.404-0.935-1.404-1.559c0-0.824,0.848-1.358,2.16-1.358c0.98,0,2.25,0.356,3.807,1.047L259.701,77.255z
	 M241.531,80.617c0,1.47-0.779,2.094-2.561,2.094h-1.828v-4.055h1.828C240.797,78.656,241.531,79.213,241.531,80.617
	 M244.979,90.966l-3.646-6.299c1.223-0.333,1.734-0.646,2.291-1.356c0.531-0.712,0.799-1.625,0.799-2.761
	c0-1.381-0.4-2.449-1.201-3.183c-0.867-0.823-1.846-1.091-3.984-1.091h-4.895v14.689h2.801V85.09h1.404l3.361,5.876H244.979z
	 M228.636,90.966v-2.379h-6.434v-3.92h5.031v-2.379h-5.031v-3.632h6.144v-2.38H219.4v14.689H228.636z M214.526,76.276h-2.938
	l-3.206,9.929l-0.089,0.179c-0.044,0.111-0.067,0.178-0.067,0.378l0.023,0.156l-0.067-0.268l-0.045-0.244l-0.044-0.201l-3.361-9.929
	h-3.072l5.453,15.112h1.959L214.526,76.276z M196.864,76.276h-2.802v14.689h2.802V76.276z M187.29,91.1V76.276h-2.647v10.908
	l-0.133-0.267l-0.134-0.379c-0.022-0.044-0.067-0.133-0.133-0.289c-0.067-0.156-0.134-0.268-0.156-0.312l-6.169-9.661h-3.225v14.69
	h2.669V80.194c0.066,0.245,0.111,0.334,0.2,0.513c0.022,0.021,0.089,0.134,0.178,0.312c0.178,0.312,0.267,0.513,0.312,0.579
	l6.302,9.502H187.29z M168.128,85.226v-8.949h-2.802v9.105c0,2.115-1.136,3.271-3.274,3.271c-2.338,0-3.474-1.091-3.474-3.271
	v-9.105h-2.78v8.949c0,2.694,0.49,3.917,2.002,4.962c1.112,0.757,2.315,1.068,4.163,1.068c1.826,0,3.073-0.334,4.141-1.068
	C167.639,89.121,168.128,87.92,168.128,85.226"/>
</svg>
